<svg width="2061" height="560" viewBox="0 0 2061 560" fill="none" xmlns="http://www.w3.org/2000/svg">
<g id="Banner Image">
<g id="Frame 3" clip-path="url(#clip0_266_617)">
<rect width="2060" height="558" transform="translate(0.5)" fill="#FFDD4A"/>
<path id="Vector 1" d="M215 166.5C159.676 118.958 91.7128 140.869 0.5 140.5V555.5L1827.5 561C1763.03 536.266 1754.66 547.545 1659.5 495C1594.29 466.274 1531.5 437.5 1487.5 449.5C1443.5 461.5 1343 441.5 1310.5 436.5C1278 431.5 1193.5 421 1137 385.5C1080.5 350 1034.5 375.5 976.5 369C918.5 362.5 885.604 350.723 837.5 305C807.548 274.206 756.421 289.554 662 320C627.419 328.819 603.801 328.903 509 268.5C479.301 251.106 458.516 242.719 330 258C288.978 259.636 262.551 227.615 215 166.5Z" fill="white" stroke="white"/>
<g id="Group 29">
<path id="Vector 4" d="M1738.12 26.2058C1732.11 22.9599 1722.75 21.0124 1716.07 26.2058C1709.39 31.3993 1709.39 32.6977 1706.72 35.9436C1704.05 39.1895 1701.06 48.1015 1706.72 58.6649C1712.39 69.2283 1718.08 75.5436 1722.75 78.7896C1727.43 82.0355 1738.68 78.7174 1746.8 84.6322C1754.92 90.5469 1762.83 96.9666 1766.84 98.9142C1770.85 100.862 1777.53 104.757 1784.21 98.9142C1790.89 93.0716 1788.88 83.983 1784.21 78.7896C1779.53 73.5961 1772.85 72.2977 1766.84 65.1567C1760.83 58.0157 1761.5 50.2256 1756.82 43.0846C1752.15 35.9436 1744.13 29.4517 1738.12 26.2058Z" fill="#FE9000" stroke="#FE9000"/>
<path id="Vector 5" d="M1743.12 26.2058C1737.11 22.9599 1727.75 21.0124 1721.07 26.2058C1714.39 31.3993 1714.39 32.6977 1711.72 35.9436C1709.05 39.1895 1706.06 48.1015 1711.72 58.6649C1717.39 69.2283 1723.08 75.5436 1727.75 78.7896C1732.43 82.0355 1743.68 78.7174 1751.8 84.6322C1759.92 90.5469 1767.83 96.9666 1771.84 98.9142C1775.85 100.862 1782.53 104.757 1789.21 98.9142C1795.89 93.0716 1793.88 83.983 1789.21 78.7896C1784.53 73.5961 1777.85 72.2977 1771.84 65.1567C1765.83 58.0157 1766.5 50.2256 1761.82 43.0846C1757.15 35.9436 1749.13 29.4517 1743.12 26.2058Z" fill="#FE9000" fill-opacity="0.31" stroke="#FE9000" stroke-opacity="0.31"/>
</g>
<g id="Group 28">
<path id="Vector 6" d="M1894.15 60.2058C1887.79 56.9599 1877.89 55.0124 1870.81 60.2058C1863.74 65.3993 1863.74 66.6977 1860.91 69.9436C1858.08 73.1895 1854.91 82.1015 1860.91 92.6649C1866.91 103.228 1872.93 109.544 1877.89 112.79C1882.84 116.035 1894.75 112.717 1903.35 118.632C1911.94 124.547 1920.32 130.967 1924.57 132.914C1928.81 134.862 1935.88 138.757 1942.96 132.914C1950.03 127.072 1947.91 117.983 1942.96 112.79C1938.01 107.596 1930.93 106.298 1924.57 99.1567C1918.2 92.0157 1918.91 84.2256 1913.96 77.0846C1909.01 69.9436 1900.52 63.4517 1894.15 60.2058Z" fill="#FE9000" stroke="#FE9000"/>
<path id="Vector 7" d="M1897.15 60.2058C1890.79 56.9599 1880.89 55.0124 1873.81 60.2058C1866.74 65.3993 1866.74 66.6977 1863.91 69.9436C1861.08 73.1895 1857.91 82.1015 1863.91 92.6649C1869.91 103.228 1875.93 109.544 1880.89 112.79C1885.84 116.035 1897.75 112.717 1906.35 118.632C1914.94 124.547 1923.32 130.967 1927.57 132.914C1931.81 134.862 1938.88 138.757 1945.96 132.914C1953.03 127.072 1950.91 117.983 1945.96 112.79C1941.01 107.596 1933.93 106.298 1927.57 99.1567C1921.2 92.0157 1921.91 84.2256 1916.96 77.0846C1912.01 69.9436 1903.52 63.4517 1897.15 60.2058Z" fill="#FE9000" fill-opacity="0.31" stroke="#FE9000" stroke-opacity="0.31"/>
</g>
<g id="Group 31">
<g id="Group 30">
<path id="Vector 8" d="M1968.29 198.244C1962.25 195 1952.85 193.053 1946.14 198.244C1939.42 203.435 1939.42 204.733 1936.74 207.977C1934.05 211.221 1931.04 220.129 1936.74 230.687C1942.43 241.245 1948.15 247.557 1952.85 250.801C1957.55 254.046 1968.86 250.729 1977.02 256.641C1985.17 262.553 1993.13 268.969 1997.15 270.916C2001.18 272.862 2007.89 276.755 2014.61 270.916C2021.32 265.076 2019.31 255.992 2014.61 250.801C2009.91 245.611 2003.2 244.313 1997.15 237.175C1991.11 230.038 1991.78 222.252 1987.08 215.114C1982.39 207.977 1974.33 201.489 1968.29 198.244Z" fill="#FE9000" stroke="#FE9000"/>
<path id="Vector 9" d="M1972.87 198.204C1966.83 194.96 1957.43 193.013 1950.72 198.204C1944 203.395 1944 204.693 1941.32 207.937C1938.63 211.181 1935.62 220.089 1941.32 230.647C1947.01 241.205 1952.73 247.517 1957.43 250.761C1962.13 254.006 1973.44 250.689 1981.6 256.601C1989.75 262.513 1997.71 268.929 2001.73 270.876C2005.76 272.822 2012.48 276.715 2019.19 270.876C2025.9 265.036 2023.89 255.952 2019.19 250.761C2014.49 245.57 2007.78 244.273 2001.73 237.135C1995.69 229.998 1996.36 222.212 1991.66 215.074C1986.97 207.937 1978.91 201.448 1972.87 198.204Z" fill="#FE9000" fill-opacity="0.31" stroke="#FE9000" stroke-opacity="0.31"/>
</g>
</g>
<g id="Group 32">
<path id="Vector 3" d="M1850.01 381C1844.51 379.5 1826.01 420 1826.01 420C1826.01 420 1793.01 413 1793.51 420C1794.01 427 1821.01 446 1821.01 446C1821.01 446 1797.51 472.5 1803.01 478.5C1808.51 484.5 1833.01 462.5 1833.01 462.5C1833.01 462.5 1851.51 494 1858.01 493C1864.51 492 1858.01 453.5 1858.01 453.5C1858.01 453.5 1894.51 443.5 1890.51 436.5C1886.51 429.5 1858.01 426 1858.01 426C1858.01 426 1855.51 382.5 1850.01 381Z" fill="#FE9000" stroke="#FE9000"/>
<circle id="Ellipse 3" cx="1851.51" cy="428" r="1.5" fill="#FFDD4A" stroke="#FFDD4A"/>
<circle id="Ellipse 4" cx="1848.01" cy="437.5" r="3.5" fill="#FFDD4A"/>
<circle id="Ellipse 5" cx="1857.01" cy="434.5" r="1.5" fill="#FFDD4A"/>
<path id="Vector 10" d="M1854.01 378.041C1848.51 376.541 1830.01 417.041 1830.01 417.041C1830.01 417.041 1797.01 410.041 1797.51 417.041C1798.01 424.041 1825.01 443.041 1825.01 443.041C1825.01 443.041 1801.51 469.541 1807.01 475.541C1812.51 481.541 1837.01 459.541 1837.01 459.541C1837.01 459.541 1855.51 491.041 1862.01 490.041C1868.51 489.041 1862.01 450.541 1862.01 450.541C1862.01 450.541 1898.51 440.541 1894.51 433.541C1890.51 426.541 1862.01 423.041 1862.01 423.041C1862.01 423.041 1859.51 379.541 1854.01 378.041Z" fill="#FE9000" fill-opacity="0.31" stroke="#FE9000" stroke-opacity="0.31"/>
</g>
<path id="Vector 2" d="M230 163.724C174.676 116.182 106.713 138.093 15.5 137.724V552.724L1842.5 558.224C1778.03 533.49 1769.66 544.769 1674.5 492.224C1609.29 463.498 1546.5 434.724 1502.5 446.724C1458.5 458.724 1358 438.724 1325.5 433.724C1293 428.724 1208.5 418.224 1152 382.724C1095.5 347.224 1049.5 372.724 991.5 366.224C933.5 359.724 900.604 347.947 852.5 302.224C822.548 271.43 771.421 286.778 677 317.224C642.419 326.043 618.801 326.127 524 265.724C494.301 248.33 473.516 239.943 345 255.224C303.978 256.86 277.551 224.84 230 163.724Z" fill="white" fill-opacity="0.31" stroke="white" stroke-opacity="0.31"/>
<path id="Vector 3_2" d="M160.5 200.032C71 175.532 15.5 196.032 15.5 196.032L16 556.532L1676 558.032C1676 558.032 1583 502.032 1538 494.532C1493 487.032 1509.5 499.032 1465 503.532C1420.5 508.032 1310 487.532 1235.5 473.032C1161 458.532 1162 409.532 1103.5 418.532C1045 427.532 975.5 420.532 923 411.032C870.5 401.532 837 328.532 799.5 344.032C762 359.532 702 389.532 618 371.032C534 352.532 567 332.532 485.5 304.532C404 276.532 330 317.532 275.5 295.532C221 273.532 250 224.532 160.5 200.032Z" fill="#094074" fill-opacity="0.31"/>
<path id="Sign up to our newsletter for free coffee for life!" d="M363.26 102.64C360.529 102.64 357.991 102.256 355.644 101.488C353.34 100.677 351.335 99.5467 349.628 98.096C347.921 96.6453 346.62 94.96 345.724 93.04C345.383 92.3573 345.361 91.7387 345.66 91.184C346.001 90.5867 346.556 90.1813 347.324 89.968C347.921 89.7973 348.497 89.8613 349.052 90.16C349.649 90.4587 350.097 90.9067 350.396 91.504C351.036 92.7413 351.975 93.8507 353.212 94.832C354.449 95.8133 355.921 96.5813 357.628 97.136C359.335 97.648 361.212 97.904 363.26 97.904C365.521 97.904 367.527 97.5413 369.276 96.816C371.025 96.048 372.391 94.96 373.372 93.552C374.396 92.1013 374.908 90.352 374.908 88.304C374.908 85.7013 373.948 83.4613 372.028 81.584C370.108 79.7067 367.1 78.512 363.004 78C358.012 77.4027 354.108 75.8667 351.292 73.392C348.476 70.8747 347.068 67.8027 347.068 64.176C347.068 61.5733 347.751 59.312 349.116 57.392C350.524 55.472 352.444 54 354.876 52.976C357.308 51.9093 360.103 51.376 363.26 51.376C365.607 51.376 367.74 51.76 369.66 52.528C371.58 53.2533 373.244 54.2347 374.652 55.472C376.103 56.6667 377.276 57.9893 378.172 59.44C378.599 60.1227 378.727 60.784 378.556 61.424C378.428 62.064 378.065 62.5547 377.468 62.896C376.828 63.1947 376.167 63.2373 375.484 63.024C374.844 62.8107 374.353 62.4053 374.012 61.808C373.372 60.8267 372.561 59.9093 371.58 59.056C370.641 58.16 369.489 57.456 368.124 56.944C366.759 56.432 365.116 56.1547 363.196 56.112C359.825 56.112 357.116 56.8373 355.068 58.288C353.02 59.696 351.996 61.7653 351.996 64.496C351.996 65.9467 352.38 67.2907 353.148 68.528C353.916 69.7227 355.175 70.768 356.924 71.664C358.716 72.5173 361.105 73.1573 364.092 73.584C369.425 74.352 373.372 75.9947 375.932 78.512C378.535 80.9867 379.836 84.2293 379.836 88.24C379.836 90.544 379.409 92.592 378.556 94.384C377.745 96.176 376.572 97.6907 375.036 98.928C373.543 100.123 371.772 101.04 369.724 101.68C367.719 102.32 365.564 102.64 363.26 102.64ZM393.155 102C392.387 102 391.768 101.787 391.299 101.36C390.872 100.891 390.659 100.272 390.659 99.504V69.488C390.659 68.72 390.872 68.1227 391.299 67.696C391.768 67.2267 392.387 66.992 393.155 66.992C393.88 66.992 394.456 67.2267 394.883 67.696C395.352 68.1227 395.587 68.72 395.587 69.488V99.504C395.587 100.272 395.352 100.891 394.883 101.36C394.456 101.787 393.88 102 393.155 102ZM393.091 60.336C392.152 60.336 391.342 59.9947 390.659 59.312C389.976 58.6293 389.635 57.7973 389.635 56.816C389.635 55.7493 389.976 54.9173 390.659 54.32C391.384 53.68 392.216 53.36 393.155 53.36C394.051 53.36 394.84 53.68 395.523 54.32C396.248 54.9173 396.611 55.7493 396.611 56.816C396.611 57.7973 396.27 58.6293 395.587 59.312C394.904 59.9947 394.072 60.336 393.091 60.336ZM423.559 102.32C420.188 102.32 417.202 101.573 414.599 100.08C411.996 98.544 409.948 96.432 408.455 93.744C407.004 91.056 406.279 87.984 406.279 84.528C406.279 81.0293 407.047 77.936 408.583 75.248C410.119 72.56 412.231 70.4693 414.919 68.976C417.607 67.44 420.658 66.672 424.071 66.672C427.527 66.672 430.578 67.44 433.223 68.976C435.911 70.4693 438.002 72.56 439.495 75.248C441.031 77.936 441.82 81.0293 441.863 84.528L438.983 86.064C438.983 89.2213 438.322 92.0373 436.999 94.512C435.676 96.944 433.842 98.864 431.495 100.272C429.191 101.637 426.546 102.32 423.559 102.32ZM424.199 115.824C420.828 115.824 417.863 115.184 415.303 113.904C412.743 112.667 410.631 110.96 408.967 108.784C408.498 108.272 408.284 107.717 408.327 107.12C408.412 106.523 408.732 106.032 409.287 105.648C409.842 105.264 410.46 105.136 411.143 105.264C411.826 105.392 412.359 105.712 412.743 106.224C413.98 107.76 415.559 108.997 417.479 109.936C419.442 110.875 421.703 111.344 424.263 111.344C426.652 111.344 428.807 110.768 430.727 109.616C432.647 108.464 434.162 106.843 435.271 104.752C436.423 102.661 436.999 100.208 436.999 97.392V87.664L438.855 83.952L441.863 84.528V97.584C441.863 101.04 441.095 104.133 439.559 106.864C438.023 109.637 435.932 111.813 433.287 113.392C430.642 115.013 427.612 115.824 424.199 115.824ZM424.071 97.84C426.588 97.84 428.807 97.2853 430.727 96.176C432.69 95.024 434.226 93.4453 435.335 91.44C436.444 89.4347 436.999 87.1307 436.999 84.528C436.999 81.9253 436.444 79.6213 435.335 77.616C434.226 75.568 432.69 73.9893 430.727 72.88C428.807 71.728 426.588 71.152 424.071 71.152C421.554 71.152 419.314 71.728 417.351 72.88C415.388 73.9893 413.852 75.568 412.743 77.616C411.634 79.6213 411.079 81.9253 411.079 84.528C411.079 87.1307 411.634 89.4347 412.743 91.44C413.852 93.4453 415.388 95.024 417.351 96.176C419.314 97.2853 421.554 97.84 424.071 97.84ZM481.464 102C480.738 102 480.141 101.765 479.672 101.296C479.202 100.827 478.968 100.251 478.968 99.568V82.928C478.968 80.2827 478.456 78.1067 477.432 76.4C476.45 74.6933 475.085 73.4133 473.336 72.56C471.629 71.7067 469.688 71.28 467.512 71.28C465.421 71.28 463.522 71.6853 461.816 72.496C460.152 73.3067 458.829 74.416 457.848 75.824C456.866 77.232 456.376 78.832 456.376 80.624H452.856C452.941 77.936 453.666 75.5467 455.032 73.456C456.397 71.3227 458.21 69.6587 460.472 68.464C462.733 67.2267 465.25 66.608 468.024 66.608C471.053 66.608 473.762 67.248 476.152 68.528C478.541 69.7653 480.418 71.6 481.784 74.032C483.192 76.464 483.896 79.4293 483.896 82.928V99.568C483.896 100.251 483.661 100.827 483.192 101.296C482.722 101.765 482.146 102 481.464 102ZM453.944 102C453.176 102 452.557 101.787 452.088 101.36C451.661 100.891 451.448 100.293 451.448 99.568V69.488C451.448 68.72 451.661 68.1227 452.088 67.696C452.557 67.2267 453.176 66.992 453.944 66.992C454.669 66.992 455.245 67.2267 455.672 67.696C456.141 68.1227 456.376 68.72 456.376 69.488V99.568C456.376 100.293 456.141 100.891 455.672 101.36C455.245 101.787 454.669 102 453.944 102ZM528.742 102.384C525.713 102.384 523.003 101.765 520.614 100.528C518.225 99.248 516.326 97.392 514.918 94.96C513.553 92.528 512.87 89.5627 512.87 86.064V69.424C512.87 68.7413 513.105 68.1653 513.574 67.696C514.043 67.2267 514.619 66.992 515.302 66.992C516.027 66.992 516.625 67.2267 517.094 67.696C517.563 68.1653 517.798 68.7413 517.798 69.424V86.064C517.798 88.7093 518.289 90.8853 519.27 92.592C520.294 94.2987 521.659 95.5787 523.366 96.432C525.115 97.2853 527.078 97.712 529.254 97.712C531.345 97.712 533.222 97.3067 534.886 96.496C536.593 95.6853 537.937 94.576 538.918 93.168C539.899 91.76 540.39 90.16 540.39 88.368H543.91C543.782 91.056 543.035 93.4667 541.67 95.6C540.347 97.6907 538.555 99.3547 536.294 100.592C534.033 101.787 531.515 102.384 528.742 102.384ZM542.822 102C542.097 102 541.499 101.787 541.03 101.36C540.603 100.891 540.39 100.272 540.39 99.504V69.424C540.39 68.6987 540.603 68.1227 541.03 67.696C541.499 67.2267 542.097 66.992 542.822 66.992C543.547 66.992 544.145 67.2267 544.614 67.696C545.083 68.1227 545.318 68.6987 545.318 69.424V99.504C545.318 100.272 545.083 100.891 544.614 101.36C544.145 101.787 543.547 102 542.822 102ZM559.319 116.976C558.551 116.976 557.932 116.741 557.463 116.272C557.036 115.845 556.823 115.248 556.823 114.48V84.272C556.865 80.944 557.655 77.9573 559.191 75.312C560.769 72.624 562.881 70.512 565.527 68.976C568.215 67.44 571.223 66.672 574.551 66.672C577.964 66.672 581.015 67.4613 583.703 69.04C586.391 70.576 588.503 72.688 590.039 75.376C591.617 78.064 592.407 81.1147 592.407 84.528C592.407 87.8987 591.639 90.928 590.103 93.616C588.609 96.304 586.561 98.4373 583.958 100.016C581.356 101.552 578.412 102.32 575.127 102.32C572.268 102.32 569.665 101.723 567.319 100.528C565.015 99.2907 563.159 97.6693 561.751 95.664V114.48C561.751 115.248 561.516 115.845 561.047 116.272C560.62 116.741 560.044 116.976 559.319 116.976ZM574.551 97.84C577.025 97.84 579.244 97.264 581.207 96.112C583.169 94.96 584.705 93.3813 585.815 91.376C586.967 89.328 587.543 87.0453 587.543 84.528C587.543 81.968 586.967 79.6853 585.815 77.68C584.705 75.6747 583.169 74.096 581.207 72.944C579.244 71.7493 577.025 71.152 574.551 71.152C572.119 71.152 569.921 71.7493 567.958 72.944C565.996 74.096 564.46 75.6747 563.351 77.68C562.241 79.6853 561.687 81.968 561.687 84.528C561.687 87.0453 562.241 89.328 563.351 91.376C564.46 93.3813 565.996 94.96 567.958 96.112C569.921 97.264 572.119 97.84 574.551 97.84ZM634.519 102C632.257 102 630.231 101.467 628.439 100.4C626.689 99.3333 625.303 97.8827 624.279 96.048C623.255 94.1707 622.743 92.0373 622.743 89.648V58.352C622.743 57.6267 622.956 57.0293 623.383 56.56C623.852 56.0907 624.449 55.856 625.175 55.856C625.9 55.856 626.497 56.0907 626.967 56.56C627.436 57.0293 627.671 57.6267 627.671 58.352V89.648C627.671 91.824 628.311 93.616 629.591 95.024C630.871 96.3893 632.513 97.072 634.519 97.072H636.247C636.929 97.072 637.484 97.3067 637.911 97.776C638.337 98.2453 638.551 98.8427 638.551 99.568C638.551 100.293 638.295 100.891 637.783 101.36C637.271 101.787 636.631 102 635.863 102H634.519ZM618.583 72.56C617.943 72.56 617.409 72.368 616.983 71.984C616.556 71.5573 616.343 71.0453 616.343 70.448C616.343 69.808 616.556 69.296 616.983 68.912C617.409 68.4853 617.943 68.272 618.583 68.272H634.903C635.543 68.272 636.076 68.4853 636.503 68.912C636.929 69.296 637.143 69.808 637.143 70.448C637.143 71.0453 636.929 71.5573 636.503 71.984C636.076 72.368 635.543 72.56 634.903 72.56H618.583ZM662.509 102.32C659.095 102.32 656.045 101.552 653.357 100.016C650.669 98.48 648.557 96.368 647.021 93.68C645.485 90.992 644.717 87.9413 644.717 84.528C644.717 81.072 645.485 78 647.021 75.312C648.557 72.624 650.669 70.512 653.357 68.976C656.045 67.44 659.095 66.672 662.509 66.672C665.922 66.672 668.951 67.44 671.597 68.976C674.285 70.512 676.397 72.624 677.933 75.312C679.469 78 680.258 81.072 680.301 84.528C680.301 87.9413 679.511 90.992 677.933 93.68C676.397 96.368 674.285 98.48 671.597 100.016C668.951 101.552 665.922 102.32 662.509 102.32ZM662.509 97.84C664.983 97.84 667.202 97.264 669.165 96.112C671.127 94.96 672.663 93.3813 673.773 91.376C674.882 89.3707 675.437 87.088 675.437 84.528C675.437 81.968 674.882 79.6853 673.773 77.68C672.663 75.632 671.127 74.032 669.165 72.88C667.202 71.728 664.983 71.152 662.509 71.152C660.034 71.152 657.815 71.728 655.853 72.88C653.89 74.032 652.333 75.632 651.181 77.68C650.071 79.6853 649.517 81.968 649.517 84.528C649.517 87.088 650.071 89.3707 651.181 91.376C652.333 93.3813 653.89 94.96 655.853 96.112C657.815 97.264 660.034 97.84 662.509 97.84ZM724.571 102.32C721.158 102.32 718.107 101.552 715.419 100.016C712.731 98.48 710.619 96.368 709.083 93.68C707.547 90.992 706.779 87.9413 706.779 84.528C706.779 81.072 707.547 78 709.083 75.312C710.619 72.624 712.731 70.512 715.419 68.976C718.107 67.44 721.158 66.672 724.571 66.672C727.984 66.672 731.014 67.44 733.659 68.976C736.347 70.512 738.459 72.624 739.995 75.312C741.531 78 742.32 81.072 742.363 84.528C742.363 87.9413 741.574 90.992 739.995 93.68C738.459 96.368 736.347 98.48 733.659 100.016C731.014 101.552 727.984 102.32 724.571 102.32ZM724.571 97.84C727.046 97.84 729.264 97.264 731.227 96.112C733.19 94.96 734.726 93.3813 735.835 91.376C736.944 89.3707 737.499 87.088 737.499 84.528C737.499 81.968 736.944 79.6853 735.835 77.68C734.726 75.632 733.19 74.032 731.227 72.88C729.264 71.728 727.046 71.152 724.571 71.152C722.096 71.152 719.878 71.728 717.915 72.88C715.952 74.032 714.395 75.632 713.243 77.68C712.134 79.6853 711.579 81.968 711.579 84.528C711.579 87.088 712.134 89.3707 713.243 91.376C714.395 93.3813 715.952 94.96 717.915 96.112C719.878 97.264 722.096 97.84 724.571 97.84ZM767.18 102.384C764.15 102.384 761.441 101.765 759.052 100.528C756.662 99.248 754.764 97.392 753.356 94.96C751.99 92.528 751.308 89.5627 751.308 86.064V69.424C751.308 68.7413 751.542 68.1653 752.012 67.696C752.481 67.2267 753.057 66.992 753.74 66.992C754.465 66.992 755.062 67.2267 755.532 67.696C756.001 68.1653 756.236 68.7413 756.236 69.424V86.064C756.236 88.7093 756.726 90.8853 757.708 92.592C758.732 94.2987 760.097 95.5787 761.804 96.432C763.553 97.2853 765.516 97.712 767.692 97.712C769.782 97.712 771.66 97.3067 773.324 96.496C775.03 95.6853 776.374 94.576 777.356 93.168C778.337 91.76 778.828 90.16 778.828 88.368H782.347C782.22 91.056 781.473 93.4667 780.108 95.6C778.785 97.6907 776.993 99.3547 774.732 100.592C772.47 101.787 769.953 102.384 767.18 102.384ZM781.26 102C780.534 102 779.937 101.787 779.468 101.36C779.041 100.891 778.828 100.272 778.828 99.504V69.424C778.828 68.6987 779.041 68.1227 779.468 67.696C779.937 67.2267 780.534 66.992 781.26 66.992C781.985 66.992 782.582 67.2267 783.052 67.696C783.521 68.1227 783.756 68.6987 783.756 69.424V99.504C783.756 100.272 783.521 100.891 783.052 101.36C782.582 101.787 781.985 102 781.26 102ZM797.308 80.432C797.436 77.7867 798.119 75.4187 799.356 73.328C800.636 71.2373 802.279 69.5947 804.284 68.4C806.332 67.2053 808.593 66.608 811.068 66.608C813.031 66.608 814.545 66.8853 815.612 67.44C816.679 67.9947 817.084 68.8053 816.828 69.872C816.657 70.512 816.359 70.9387 815.932 71.152C815.548 71.3653 815.057 71.4507 814.46 71.408C813.905 71.3653 813.265 71.3227 812.54 71.28C810.151 71.0667 808.017 71.3227 806.14 72.048C804.305 72.7307 802.833 73.7973 801.724 75.248C800.657 76.6987 800.124 78.4267 800.124 80.432H797.308ZM797.692 102C796.924 102 796.327 101.787 795.9 101.36C795.473 100.933 795.26 100.336 795.26 99.568V69.424C795.26 68.656 795.473 68.0587 795.9 67.632C796.327 67.2053 796.924 66.992 797.692 66.992C798.46 66.992 799.057 67.2053 799.484 67.632C799.911 68.0587 800.124 68.656 800.124 69.424V99.568C800.124 100.336 799.911 100.933 799.484 101.36C799.057 101.787 798.46 102 797.692 102ZM873.339 102C872.613 102 872.016 101.765 871.547 101.296C871.077 100.827 870.843 100.251 870.843 99.568V82.928C870.843 80.2827 870.331 78.1067 869.307 76.4C868.325 74.6933 866.96 73.4133 865.211 72.56C863.504 71.7067 861.563 71.28 859.387 71.28C857.296 71.28 855.397 71.6853 853.691 72.496C852.027 73.3067 850.704 74.416 849.723 75.824C848.741 77.232 848.251 78.832 848.251 80.624H844.731C844.816 77.936 845.541 75.5467 846.907 73.456C848.272 71.3227 850.085 69.6587 852.347 68.464C854.608 67.2267 857.125 66.608 859.899 66.608C862.928 66.608 865.637 67.248 868.027 68.528C870.416 69.7653 872.293 71.6 873.659 74.032C875.067 76.464 875.771 79.4293 875.771 82.928V99.568C875.771 100.251 875.536 100.827 875.067 101.296C874.597 101.765 874.021 102 873.339 102ZM845.819 102C845.051 102 844.432 101.787 843.963 101.36C843.536 100.891 843.323 100.293 843.323 99.568V69.488C843.323 68.72 843.536 68.1227 843.963 67.696C844.432 67.2267 845.051 66.992 845.819 66.992C846.544 66.992 847.12 67.2267 847.547 67.696C848.016 68.1227 848.251 68.72 848.251 69.488V99.568C848.251 100.293 848.016 100.891 847.547 101.36C847.12 101.787 846.544 102 845.819 102ZM902.507 102.32C899.051 102.32 895.979 101.573 893.291 100.08C890.646 98.544 888.555 96.432 887.019 93.744C885.526 91.056 884.779 87.984 884.779 84.528C884.779 81.0293 885.483 77.9573 886.891 75.312C888.342 72.624 890.326 70.512 892.843 68.976C895.36 67.44 898.262 66.672 901.547 66.672C904.79 66.672 907.606 67.4187 909.995 68.912C912.427 70.3627 914.304 72.3893 915.627 74.992C916.95 77.5947 917.611 80.56 917.611 83.888C917.611 84.5707 917.398 85.1253 916.971 85.552C916.544 85.936 915.99 86.128 915.307 86.128H888.107V82.032H915.819L913.067 84.016C913.11 81.5413 912.662 79.3227 911.723 77.36C910.784 75.3973 909.44 73.8613 907.691 72.752C905.984 71.6427 903.936 71.088 901.547 71.088C899.115 71.088 896.982 71.664 895.147 72.816C893.312 73.968 891.883 75.568 890.859 77.616C889.878 79.6213 889.387 81.9253 889.387 84.528C889.387 87.1307 889.942 89.4347 891.051 91.44C892.203 93.4453 893.76 95.024 895.723 96.176C897.686 97.328 899.947 97.904 902.507 97.904C904.043 97.904 905.579 97.648 907.115 97.136C908.694 96.5813 909.952 95.8987 910.891 95.088C911.36 94.704 911.894 94.512 912.491 94.512C913.088 94.4693 913.6 94.6187 914.027 94.96C914.582 95.472 914.859 96.0267 914.859 96.624C914.902 97.2213 914.667 97.7333 914.155 98.16C912.747 99.3547 910.955 100.357 908.779 101.168C906.603 101.936 904.512 102.32 902.507 102.32ZM932.634 102C932.079 102 931.588 101.851 931.162 101.552C930.735 101.253 930.436 100.869 930.266 100.4L920.282 70.448C920.026 69.3813 920.047 68.5493 920.346 67.952C920.644 67.312 921.242 66.992 922.138 66.992C922.692 66.992 923.183 67.1413 923.61 67.44C924.036 67.7387 924.356 68.208 924.57 68.848L933.466 96.048H932.058L940.314 68.912C940.484 68.3573 940.762 67.9093 941.146 67.568C941.572 67.184 942.106 66.992 942.746 66.992C943.386 66.992 943.898 67.1627 944.282 67.504C944.708 67.8453 945.007 68.3147 945.178 68.912L953.05 95.408H951.962L960.666 68.848C961.092 67.6107 961.882 66.992 963.034 66.992C963.972 66.992 964.612 67.3547 964.954 68.08C965.295 68.7627 965.295 69.552 964.954 70.448L954.97 100.4C954.799 100.869 954.5 101.253 954.074 101.552C953.69 101.851 953.22 102 952.666 102C952.111 102 951.599 101.851 951.13 101.552C950.703 101.253 950.426 100.869 950.298 100.4L942.234 73.648H943.002L934.938 100.4C934.767 100.912 934.468 101.317 934.042 101.616C933.615 101.872 933.146 102 932.634 102ZM984.297 102.32C981.779 102.32 979.283 101.893 976.809 101.04C974.334 100.187 972.329 98.9067 970.793 97.2C970.323 96.688 970.131 96.112 970.217 95.472C970.302 94.832 970.622 94.2773 971.177 93.808C971.774 93.3813 972.393 93.2107 973.033 93.296C973.673 93.3813 974.206 93.6587 974.633 94.128C975.657 95.3227 977.001 96.24 978.665 96.88C980.371 97.52 982.249 97.84 984.297 97.84C987.454 97.84 989.737 97.3067 991.145 96.24C992.553 95.1307 993.278 93.808 993.321 92.272C993.321 90.736 992.595 89.4773 991.145 88.496C989.694 87.472 987.305 86.6827 983.977 86.128C979.667 85.4453 976.51 84.2507 974.505 82.544C972.499 80.8373 971.497 78.8107 971.497 76.464C971.497 74.288 972.073 72.4747 973.225 71.024C974.377 69.5733 975.913 68.4853 977.833 67.76C979.753 67.0347 981.865 66.672 984.169 66.672C987.027 66.672 989.481 67.1627 991.529 68.144C993.619 69.1253 995.305 70.448 996.585 72.112C997.011 72.6667 997.182 73.2427 997.097 73.84C997.011 74.4373 996.67 74.928 996.073 75.312C995.561 75.6107 994.963 75.7173 994.281 75.632C993.641 75.504 993.086 75.184 992.617 74.672C991.55 73.4347 990.313 72.5387 988.905 71.984C987.497 71.3867 985.875 71.088 984.041 71.088C981.694 71.088 979.817 71.5787 978.409 72.56C977.001 73.4987 976.297 74.6933 976.297 76.144C976.297 77.1253 976.553 77.9787 977.065 78.704C977.619 79.4293 978.537 80.0693 979.817 80.624C981.139 81.1787 982.974 81.648 985.321 82.032C988.521 82.544 991.038 83.312 992.873 84.336C994.75 85.3173 996.073 86.4907 996.841 87.856C997.651 89.1787 998.057 90.6293 998.057 92.208C998.057 94.2133 997.459 95.984 996.265 97.52C995.113 99.0133 993.491 100.187 991.401 101.04C989.353 101.893 986.985 102.32 984.297 102.32ZM1014.12 102C1012.42 102 1010.88 101.531 1009.52 100.592C1008.19 99.6533 1007.15 98.352 1006.38 96.688C1005.66 95.024 1005.29 93.104 1005.29 90.928V54.448C1005.29 53.7227 1005.51 53.1467 1005.93 52.72C1006.4 52.2507 1007 52.016 1007.72 52.016C1008.45 52.016 1009.03 52.2507 1009.45 52.72C1009.92 53.1467 1010.16 53.7227 1010.16 54.448V90.928C1010.16 92.7627 1010.52 94.256 1011.24 95.408C1012.01 96.56 1012.97 97.136 1014.12 97.136H1015.72C1016.36 97.136 1016.88 97.3707 1017.26 97.84C1017.64 98.2667 1017.84 98.8427 1017.84 99.568C1017.84 100.293 1017.56 100.891 1017 101.36C1016.49 101.787 1015.81 102 1014.96 102H1014.12ZM1038.57 102.32C1035.11 102.32 1032.04 101.573 1029.35 100.08C1026.71 98.544 1024.62 96.432 1023.08 93.744C1021.59 91.056 1020.84 87.984 1020.84 84.528C1020.84 81.0293 1021.55 77.9573 1022.95 75.312C1024.4 72.624 1026.39 70.512 1028.91 68.976C1031.42 67.44 1034.32 66.672 1037.61 66.672C1040.85 66.672 1043.67 67.4187 1046.06 68.912C1048.49 70.3627 1050.37 72.3893 1051.69 74.992C1053.01 77.5947 1053.67 80.56 1053.67 83.888C1053.67 84.5707 1053.46 85.1253 1053.03 85.552C1052.61 85.936 1052.05 86.128 1051.37 86.128H1024.17V82.032H1051.88L1049.13 84.016C1049.17 81.5413 1048.72 79.3227 1047.79 77.36C1046.85 75.3973 1045.5 73.8613 1043.75 72.752C1042.05 71.6427 1040 71.088 1037.61 71.088C1035.18 71.088 1033.04 71.664 1031.21 72.816C1029.37 73.968 1027.95 75.568 1026.92 77.616C1025.94 79.6213 1025.45 81.9253 1025.45 84.528C1025.45 87.1307 1026 89.4347 1027.11 91.44C1028.27 93.4453 1029.82 95.024 1031.79 96.176C1033.75 97.328 1036.01 97.904 1038.57 97.904C1040.11 97.904 1041.64 97.648 1043.18 97.136C1044.76 96.5813 1046.01 95.8987 1046.95 95.088C1047.42 94.704 1047.96 94.512 1048.55 94.512C1049.15 94.4693 1049.66 94.6187 1050.09 94.96C1050.64 95.472 1050.92 96.0267 1050.92 96.624C1050.96 97.2213 1050.73 97.7333 1050.22 98.16C1048.81 99.3547 1047.02 100.357 1044.84 101.168C1042.67 101.936 1040.57 102.32 1038.57 102.32ZM1075.71 102C1073.44 102 1071.42 101.467 1069.63 100.4C1067.88 99.3333 1066.49 97.8827 1065.47 96.048C1064.44 94.1707 1063.93 92.0373 1063.93 89.648V58.352C1063.93 57.6267 1064.14 57.0293 1064.57 56.56C1065.04 56.0907 1065.64 55.856 1066.36 55.856C1067.09 55.856 1067.68 56.0907 1068.15 56.56C1068.62 57.0293 1068.86 57.6267 1068.86 58.352V89.648C1068.86 91.824 1069.5 93.616 1070.78 95.024C1072.06 96.3893 1073.7 97.072 1075.71 97.072H1077.43C1078.12 97.072 1078.67 97.3067 1079.1 97.776C1079.52 98.2453 1079.74 98.8427 1079.74 99.568C1079.74 100.293 1079.48 100.891 1078.97 101.36C1078.46 101.787 1077.82 102 1077.05 102H1075.71ZM1059.77 72.56C1059.13 72.56 1058.6 72.368 1058.17 71.984C1057.74 71.5573 1057.53 71.0453 1057.53 70.448C1057.53 69.808 1057.74 69.296 1058.17 68.912C1058.6 68.4853 1059.13 68.272 1059.77 68.272H1076.09C1076.73 68.272 1077.26 68.4853 1077.69 68.912C1078.12 69.296 1078.33 69.808 1078.33 70.448C1078.33 71.0453 1078.12 71.5573 1077.69 71.984C1077.26 72.368 1076.73 72.56 1076.09 72.56H1059.77ZM1101.46 102C1099.19 102 1097.17 101.467 1095.38 100.4C1093.63 99.3333 1092.24 97.8827 1091.22 96.048C1090.19 94.1707 1089.68 92.0373 1089.68 89.648V58.352C1089.68 57.6267 1089.89 57.0293 1090.32 56.56C1090.79 56.0907 1091.39 55.856 1092.11 55.856C1092.84 55.856 1093.43 56.0907 1093.9 56.56C1094.37 57.0293 1094.61 57.6267 1094.61 58.352V89.648C1094.61 91.824 1095.25 93.616 1096.53 95.024C1097.81 96.3893 1099.45 97.072 1101.46 97.072H1103.18C1103.87 97.072 1104.42 97.3067 1104.85 97.776C1105.27 98.2453 1105.49 98.8427 1105.49 99.568C1105.49 100.293 1105.23 100.891 1104.72 101.36C1104.21 101.787 1103.57 102 1102.8 102H1101.46ZM1085.52 72.56C1084.88 72.56 1084.35 72.368 1083.92 71.984C1083.49 71.5573 1083.28 71.0453 1083.28 70.448C1083.28 69.808 1083.49 69.296 1083.92 68.912C1084.35 68.4853 1084.88 68.272 1085.52 68.272H1101.84C1102.48 68.272 1103.01 68.4853 1103.44 68.912C1103.87 69.296 1104.08 69.808 1104.08 70.448C1104.08 71.0453 1103.87 71.5573 1103.44 71.984C1103.01 72.368 1102.48 72.56 1101.84 72.56H1085.52ZM1129.38 102.32C1125.93 102.32 1122.85 101.573 1120.17 100.08C1117.52 98.544 1115.43 96.432 1113.89 93.744C1112.4 91.056 1111.65 87.984 1111.65 84.528C1111.65 81.0293 1112.36 77.9573 1113.77 75.312C1115.22 72.624 1117.2 70.512 1119.72 68.976C1122.24 67.44 1125.14 66.672 1128.42 66.672C1131.66 66.672 1134.48 67.4187 1136.87 68.912C1139.3 70.3627 1141.18 72.3893 1142.5 74.992C1143.82 77.5947 1144.49 80.56 1144.49 83.888C1144.49 84.5707 1144.27 85.1253 1143.85 85.552C1143.42 85.936 1142.86 86.128 1142.18 86.128H1114.98V82.032H1142.69L1139.94 84.016C1139.98 81.5413 1139.54 79.3227 1138.6 77.36C1137.66 75.3973 1136.32 73.8613 1134.57 72.752C1132.86 71.6427 1130.81 71.088 1128.42 71.088C1125.99 71.088 1123.86 71.664 1122.02 72.816C1120.19 73.968 1118.76 75.568 1117.73 77.616C1116.75 79.6213 1116.26 81.9253 1116.26 84.528C1116.26 87.1307 1116.82 89.4347 1117.93 91.44C1119.08 93.4453 1120.64 95.024 1122.6 96.176C1124.56 97.328 1126.82 97.904 1129.38 97.904C1130.92 97.904 1132.45 97.648 1133.99 97.136C1135.57 96.5813 1136.83 95.8987 1137.77 95.088C1138.24 94.704 1138.77 94.512 1139.37 94.512C1139.96 94.4693 1140.48 94.6187 1140.9 94.96C1141.46 95.472 1141.73 96.0267 1141.73 96.624C1141.78 97.2213 1141.54 97.7333 1141.03 98.16C1139.62 99.3547 1137.83 100.357 1135.65 101.168C1133.48 101.936 1131.39 102.32 1129.38 102.32ZM1154.87 80.432C1155 77.7867 1155.68 75.4187 1156.92 73.328C1158.2 71.2373 1159.84 69.5947 1161.85 68.4C1163.89 67.2053 1166.16 66.608 1168.63 66.608C1170.59 66.608 1172.11 66.8853 1173.17 67.44C1174.24 67.9947 1174.65 68.8053 1174.39 69.872C1174.22 70.512 1173.92 70.9387 1173.49 71.152C1173.11 71.3653 1172.62 71.4507 1172.02 71.408C1171.47 71.3653 1170.83 71.3227 1170.1 71.28C1167.71 71.0667 1165.58 71.3227 1163.7 72.048C1161.87 72.7307 1160.4 73.7973 1159.29 75.248C1158.22 76.6987 1157.69 78.4267 1157.69 80.432H1154.87ZM1155.25 102C1154.49 102 1153.89 101.787 1153.46 101.36C1153.04 100.933 1152.82 100.336 1152.82 99.568V69.424C1152.82 68.656 1153.04 68.0587 1153.46 67.632C1153.89 67.2053 1154.49 66.992 1155.25 66.992C1156.02 66.992 1156.62 67.2053 1157.05 67.632C1157.47 68.0587 1157.69 68.656 1157.69 69.424V99.568C1157.69 100.336 1157.47 100.933 1157.05 101.36C1156.62 101.787 1156.02 102 1155.25 102ZM1205.24 102C1204.6 102 1204.04 101.787 1203.57 101.36C1203.1 100.891 1202.87 100.272 1202.87 99.504V67.056C1202.87 64.0693 1203.38 61.4453 1204.41 59.184C1205.43 56.9227 1206.94 55.1733 1208.95 53.936C1210.95 52.656 1213.41 52.016 1216.31 52.016C1217.03 52.016 1217.63 52.2293 1218.1 52.656C1218.57 53.0827 1218.81 53.616 1218.81 54.256C1218.81 54.896 1218.57 55.4293 1218.1 55.856C1217.63 56.2827 1217.03 56.496 1216.31 56.496C1214.39 56.496 1212.79 56.944 1211.51 57.84C1210.27 58.6933 1209.33 59.9093 1208.69 61.488C1208.1 63.024 1207.8 64.7947 1207.8 66.8V99.504C1207.8 100.272 1207.56 100.891 1207.09 101.36C1206.67 101.787 1206.05 102 1205.24 102ZM1198.77 72.56C1198.09 72.56 1197.54 72.368 1197.11 71.984C1196.73 71.5573 1196.53 71.0453 1196.53 70.448C1196.53 69.808 1196.73 69.296 1197.11 68.912C1197.54 68.4853 1198.09 68.272 1198.77 68.272H1215.48C1216.16 68.272 1216.69 68.4853 1217.08 68.912C1217.5 69.296 1217.72 69.808 1217.72 70.448C1217.72 71.0453 1217.5 71.5573 1217.08 71.984C1216.69 72.368 1216.16 72.56 1215.48 72.56H1198.77ZM1239.01 102.32C1235.6 102.32 1232.54 101.552 1229.86 100.016C1227.17 98.48 1225.06 96.368 1223.52 93.68C1221.98 90.992 1221.22 87.9413 1221.22 84.528C1221.22 81.072 1221.98 78 1223.52 75.312C1225.06 72.624 1227.17 70.512 1229.86 68.976C1232.54 67.44 1235.6 66.672 1239.01 66.672C1242.42 66.672 1245.45 67.44 1248.1 68.976C1250.78 70.512 1252.9 72.624 1254.43 75.312C1255.97 78 1256.76 81.072 1256.8 84.528C1256.8 87.9413 1256.01 90.992 1254.43 93.68C1252.9 96.368 1250.78 98.48 1248.1 100.016C1245.45 101.552 1242.42 102.32 1239.01 102.32ZM1239.01 97.84C1241.48 97.84 1243.7 97.264 1245.66 96.112C1247.63 94.96 1249.16 93.3813 1250.27 91.376C1251.38 89.3707 1251.94 87.088 1251.94 84.528C1251.94 81.968 1251.38 79.6853 1250.27 77.68C1249.16 75.632 1247.63 74.032 1245.66 72.88C1243.7 71.728 1241.48 71.152 1239.01 71.152C1236.53 71.152 1234.32 71.728 1232.35 72.88C1230.39 74.032 1228.83 75.632 1227.68 77.68C1226.57 79.6853 1226.02 81.968 1226.02 84.528C1226.02 87.088 1226.57 89.3707 1227.68 91.376C1228.83 93.3813 1230.39 94.96 1232.35 96.112C1234.32 97.264 1236.53 97.84 1239.01 97.84ZM1268.43 80.432C1268.56 77.7867 1269.24 75.4187 1270.48 73.328C1271.76 71.2373 1273.4 69.5947 1275.41 68.4C1277.46 67.2053 1279.72 66.608 1282.19 66.608C1284.16 66.608 1285.67 66.8853 1286.74 67.44C1287.8 67.9947 1288.21 68.8053 1287.95 69.872C1287.78 70.512 1287.48 70.9387 1287.06 71.152C1286.67 71.3653 1286.18 71.4507 1285.59 71.408C1285.03 71.3653 1284.39 71.3227 1283.67 71.28C1281.28 71.0667 1279.14 71.3227 1277.27 72.048C1275.43 72.7307 1273.96 73.7973 1272.85 75.248C1271.78 76.6987 1271.25 78.4267 1271.25 80.432H1268.43ZM1268.82 102C1268.05 102 1267.45 101.787 1267.03 101.36C1266.6 100.933 1266.39 100.336 1266.39 99.568V69.424C1266.39 68.656 1266.6 68.0587 1267.03 67.632C1267.45 67.2053 1268.05 66.992 1268.82 66.992C1269.59 66.992 1270.18 67.2053 1270.61 67.632C1271.04 68.0587 1271.25 68.656 1271.25 69.424V99.568C1271.25 100.336 1271.04 100.933 1270.61 101.36C1270.18 101.787 1269.59 102 1268.82 102ZM1318.8 102C1318.16 102 1317.6 101.787 1317.14 101.36C1316.67 100.891 1316.43 100.272 1316.43 99.504V67.056C1316.43 64.0693 1316.94 61.4453 1317.97 59.184C1318.99 56.9227 1320.51 55.1733 1322.51 53.936C1324.52 52.656 1326.97 52.016 1329.87 52.016C1330.6 52.016 1331.19 52.2293 1331.66 52.656C1332.13 53.0827 1332.37 53.616 1332.37 54.256C1332.37 54.896 1332.13 55.4293 1331.66 55.856C1331.19 56.2827 1330.6 56.496 1329.87 56.496C1327.95 56.496 1326.35 56.944 1325.07 57.84C1323.83 58.6933 1322.9 59.9093 1322.26 61.488C1321.66 63.024 1321.36 64.7947 1321.36 66.8V99.504C1321.36 100.272 1321.12 100.891 1320.66 101.36C1320.23 101.787 1319.61 102 1318.8 102ZM1312.34 72.56C1311.65 72.56 1311.1 72.368 1310.67 71.984C1310.29 71.5573 1310.1 71.0453 1310.1 70.448C1310.1 69.808 1310.29 69.296 1310.67 68.912C1311.1 68.4853 1311.65 68.272 1312.34 68.272H1329.04C1329.72 68.272 1330.26 68.4853 1330.64 68.912C1331.07 69.296 1331.28 69.808 1331.28 70.448C1331.28 71.0453 1331.07 71.5573 1330.64 71.984C1330.26 72.368 1329.72 72.56 1329.04 72.56H1312.34ZM1339.93 80.432C1340.06 77.7867 1340.74 75.4187 1341.98 73.328C1343.26 71.2373 1344.9 69.5947 1346.91 68.4C1348.96 67.2053 1351.22 66.608 1353.69 66.608C1355.66 66.608 1357.17 66.8853 1358.24 67.44C1359.3 67.9947 1359.71 68.8053 1359.45 69.872C1359.28 70.512 1358.98 70.9387 1358.56 71.152C1358.17 71.3653 1357.68 71.4507 1357.09 71.408C1356.53 71.3653 1355.89 71.3227 1355.17 71.28C1352.78 71.0667 1350.64 71.3227 1348.77 72.048C1346.93 72.7307 1345.46 73.7973 1344.35 75.248C1343.28 76.6987 1342.75 78.4267 1342.75 80.432H1339.93ZM1340.32 102C1339.55 102 1338.95 101.787 1338.53 101.36C1338.1 100.933 1337.89 100.336 1337.89 99.568V69.424C1337.89 68.656 1338.1 68.0587 1338.53 67.632C1338.95 67.2053 1339.55 66.992 1340.32 66.992C1341.09 66.992 1341.68 67.2053 1342.11 67.632C1342.54 68.0587 1342.75 68.656 1342.75 69.424V99.568C1342.75 100.336 1342.54 100.933 1342.11 101.36C1341.68 101.787 1341.09 102 1340.32 102ZM1380.51 102.32C1377.05 102.32 1373.98 101.573 1371.29 100.08C1368.65 98.544 1366.55 96.432 1365.02 93.744C1363.53 91.056 1362.78 87.984 1362.78 84.528C1362.78 81.0293 1363.48 77.9573 1364.89 75.312C1366.34 72.624 1368.33 70.512 1370.84 68.976C1373.36 67.44 1376.26 66.672 1379.55 66.672C1382.79 66.672 1385.61 67.4187 1388 68.912C1390.43 70.3627 1392.3 72.3893 1393.63 74.992C1394.95 77.5947 1395.61 80.56 1395.61 83.888C1395.61 84.5707 1395.4 85.1253 1394.97 85.552C1394.54 85.936 1393.99 86.128 1393.31 86.128H1366.11V82.032H1393.82L1391.07 84.016C1391.11 81.5413 1390.66 79.3227 1389.72 77.36C1388.78 75.3973 1387.44 73.8613 1385.69 72.752C1383.98 71.6427 1381.94 71.088 1379.55 71.088C1377.12 71.088 1374.98 71.664 1373.15 72.816C1371.31 73.968 1369.88 75.568 1368.86 77.616C1367.88 79.6213 1367.39 81.9253 1367.39 84.528C1367.39 87.1307 1367.94 89.4347 1369.05 91.44C1370.2 93.4453 1371.76 95.024 1373.72 96.176C1375.69 97.328 1377.95 97.904 1380.51 97.904C1382.04 97.904 1383.58 97.648 1385.12 97.136C1386.69 96.5813 1387.95 95.8987 1388.89 95.088C1389.36 94.704 1389.89 94.512 1390.49 94.512C1391.09 94.4693 1391.6 94.6187 1392.03 94.96C1392.58 95.472 1392.86 96.0267 1392.86 96.624C1392.9 97.2213 1392.67 97.7333 1392.16 98.16C1390.75 99.3547 1388.96 100.357 1386.78 101.168C1384.6 101.936 1382.51 102.32 1380.51 102.32ZM1418.57 102.32C1415.11 102.32 1412.04 101.573 1409.35 100.08C1406.71 98.544 1404.62 96.432 1403.08 93.744C1401.59 91.056 1400.84 87.984 1400.84 84.528C1400.84 81.0293 1401.55 77.9573 1402.95 75.312C1404.4 72.624 1406.39 70.512 1408.91 68.976C1411.42 67.44 1414.32 66.672 1417.61 66.672C1420.85 66.672 1423.67 67.4187 1426.06 68.912C1428.49 70.3627 1430.37 72.3893 1431.69 74.992C1433.01 77.5947 1433.67 80.56 1433.67 83.888C1433.67 84.5707 1433.46 85.1253 1433.03 85.552C1432.61 85.936 1432.05 86.128 1431.37 86.128H1404.17V82.032H1431.88L1429.13 84.016C1429.17 81.5413 1428.72 79.3227 1427.79 77.36C1426.85 75.3973 1425.5 73.8613 1423.75 72.752C1422.05 71.6427 1420 71.088 1417.61 71.088C1415.18 71.088 1413.04 71.664 1411.21 72.816C1409.37 73.968 1407.95 75.568 1406.92 77.616C1405.94 79.6213 1405.45 81.9253 1405.45 84.528C1405.45 87.1307 1406 89.4347 1407.11 91.44C1408.27 93.4453 1409.82 95.024 1411.79 96.176C1413.75 97.328 1416.01 97.904 1418.57 97.904C1420.11 97.904 1421.64 97.648 1423.18 97.136C1424.76 96.5813 1426.01 95.8987 1426.95 95.088C1427.42 94.704 1427.96 94.512 1428.55 94.512C1429.15 94.4693 1429.66 94.6187 1430.09 94.96C1430.64 95.472 1430.92 96.0267 1430.92 96.624C1430.96 97.2213 1430.73 97.7333 1430.22 98.16C1428.81 99.3547 1427.02 100.357 1424.84 101.168C1422.67 101.936 1420.57 102.32 1418.57 102.32ZM362.876 192.32C359.505 192.32 356.497 191.552 353.852 190.016C351.249 188.437 349.18 186.304 347.644 183.616C346.151 180.928 345.404 177.899 345.404 174.528C345.404 171.115 346.129 168.064 347.58 165.376C349.031 162.688 351.015 160.576 353.532 159.04C356.049 157.461 358.951 156.672 362.236 156.672C364.839 156.672 367.228 157.184 369.404 158.208C371.623 159.232 373.564 160.768 375.228 162.816C375.697 163.328 375.868 163.883 375.74 164.48C375.612 165.035 375.249 165.525 374.652 165.952C374.183 166.293 373.649 166.421 373.052 166.336C372.497 166.208 372.007 165.888 371.58 165.376C369.105 162.56 365.991 161.152 362.236 161.152C359.847 161.152 357.735 161.728 355.9 162.88C354.108 164.032 352.7 165.611 351.676 167.616C350.695 169.621 350.204 171.925 350.204 174.528C350.204 177.088 350.737 179.371 351.804 181.376C352.871 183.381 354.364 184.96 356.284 186.112C358.204 187.264 360.401 187.84 362.876 187.84C364.54 187.84 366.055 187.627 367.42 187.2C368.828 186.731 370.065 186.027 371.132 185.088C371.644 184.661 372.177 184.427 372.732 184.384C373.287 184.341 373.799 184.512 374.268 184.896C374.78 185.365 375.057 185.899 375.1 186.496C375.185 187.093 374.993 187.605 374.524 188.032C371.409 190.891 367.527 192.32 362.876 192.32ZM401.259 192.32C397.845 192.32 394.795 191.552 392.107 190.016C389.419 188.48 387.307 186.368 385.771 183.68C384.235 180.992 383.467 177.941 383.467 174.528C383.467 171.072 384.235 168 385.771 165.312C387.307 162.624 389.419 160.512 392.107 158.976C394.795 157.44 397.845 156.672 401.259 156.672C404.672 156.672 407.701 157.44 410.347 158.976C413.035 160.512 415.147 162.624 416.683 165.312C418.219 168 419.008 171.072 419.051 174.528C419.051 177.941 418.261 180.992 416.683 183.68C415.147 186.368 413.035 188.48 410.347 190.016C407.701 191.552 404.672 192.32 401.259 192.32ZM401.259 187.84C403.733 187.84 405.952 187.264 407.915 186.112C409.877 184.96 411.413 183.381 412.523 181.376C413.632 179.371 414.187 177.088 414.187 174.528C414.187 171.968 413.632 169.685 412.523 167.68C411.413 165.632 409.877 164.032 407.915 162.88C405.952 161.728 403.733 161.152 401.259 161.152C398.784 161.152 396.565 161.728 394.603 162.88C392.64 164.032 391.083 165.632 389.931 167.68C388.821 169.685 388.267 171.968 388.267 174.528C388.267 177.088 388.821 179.371 389.931 181.376C391.083 183.381 392.64 184.96 394.603 186.112C396.565 187.264 398.784 187.84 401.259 187.84ZM432.987 192C432.347 192 431.792 191.787 431.323 191.36C430.854 190.891 430.619 190.272 430.619 189.504V157.056C430.619 154.069 431.131 151.445 432.155 149.184C433.179 146.923 434.694 145.173 436.699 143.936C438.704 142.656 441.158 142.016 444.059 142.016C444.784 142.016 445.382 142.229 445.851 142.656C446.32 143.083 446.555 143.616 446.555 144.256C446.555 144.896 446.32 145.429 445.851 145.856C445.382 146.283 444.784 146.496 444.059 146.496C442.139 146.496 440.539 146.944 439.259 147.84C438.022 148.693 437.083 149.909 436.443 151.488C435.846 153.024 435.547 154.795 435.547 156.8V189.504C435.547 190.272 435.312 190.891 434.843 191.36C434.416 191.787 433.798 192 432.987 192ZM426.523 162.56C425.84 162.56 425.286 162.368 424.859 161.984C424.475 161.557 424.283 161.045 424.283 160.448C424.283 159.808 424.475 159.296 424.859 158.912C425.286 158.485 425.84 158.272 426.523 158.272H443.227C443.91 158.272 444.443 158.485 444.827 158.912C445.254 159.296 445.467 159.808 445.467 160.448C445.467 161.045 445.254 161.557 444.827 161.984C444.443 162.368 443.91 162.56 443.227 162.56H426.523ZM456.411 192C455.771 192 455.216 191.787 454.747 191.36C454.278 190.891 454.043 190.272 454.043 189.504V157.056C454.043 154.069 454.555 151.445 455.579 149.184C456.603 146.923 458.118 145.173 460.123 143.936C462.128 142.656 464.582 142.016 467.483 142.016C468.208 142.016 468.806 142.229 469.275 142.656C469.744 143.083 469.979 143.616 469.979 144.256C469.979 144.896 469.744 145.429 469.275 145.856C468.806 146.283 468.208 146.496 467.483 146.496C465.563 146.496 463.963 146.944 462.683 147.84C461.446 148.693 460.507 149.909 459.867 151.488C459.27 153.024 458.971 154.795 458.971 156.8V189.504C458.971 190.272 458.736 190.891 458.267 191.36C457.84 191.787 457.222 192 456.411 192ZM449.947 162.56C449.264 162.56 448.71 162.368 448.283 161.984C447.899 161.557 447.707 161.045 447.707 160.448C447.707 159.808 447.899 159.296 448.283 158.912C448.71 158.485 449.264 158.272 449.947 158.272H466.651C467.334 158.272 467.867 158.485 468.251 158.912C468.678 159.296 468.891 159.808 468.891 160.448C468.891 161.045 468.678 161.557 468.251 161.984C467.867 162.368 467.334 162.56 466.651 162.56H449.947ZM490.132 192.32C486.676 192.32 483.604 191.573 480.916 190.08C478.271 188.544 476.18 186.432 474.644 183.744C473.151 181.056 472.404 177.984 472.404 174.528C472.404 171.029 473.108 167.957 474.516 165.312C475.967 162.624 477.951 160.512 480.468 158.976C482.985 157.44 485.887 156.672 489.172 156.672C492.415 156.672 495.231 157.419 497.62 158.912C500.052 160.363 501.929 162.389 503.252 164.992C504.575 167.595 505.236 170.56 505.236 173.888C505.236 174.571 505.023 175.125 504.596 175.552C504.169 175.936 503.615 176.128 502.932 176.128H475.732V172.032H503.444L500.692 174.016C500.735 171.541 500.287 169.323 499.348 167.36C498.409 165.397 497.065 163.861 495.316 162.752C493.609 161.643 491.561 161.088 489.172 161.088C486.74 161.088 484.607 161.664 482.772 162.816C480.937 163.968 479.508 165.568 478.484 167.616C477.503 169.621 477.012 171.925 477.012 174.528C477.012 177.131 477.567 179.435 478.676 181.44C479.828 183.445 481.385 185.024 483.348 186.176C485.311 187.328 487.572 187.904 490.132 187.904C491.668 187.904 493.204 187.648 494.74 187.136C496.319 186.581 497.577 185.899 498.516 185.088C498.985 184.704 499.519 184.512 500.116 184.512C500.713 184.469 501.225 184.619 501.652 184.96C502.207 185.472 502.484 186.027 502.484 186.624C502.527 187.221 502.292 187.733 501.78 188.16C500.372 189.355 498.58 190.357 496.404 191.168C494.228 191.936 492.137 192.32 490.132 192.32ZM528.195 192.32C524.739 192.32 521.667 191.573 518.979 190.08C516.333 188.544 514.242 186.432 512.707 183.744C511.213 181.056 510.467 177.984 510.467 174.528C510.467 171.029 511.171 167.957 512.579 165.312C514.029 162.624 516.013 160.512 518.531 158.976C521.048 157.44 523.949 156.672 527.235 156.672C530.477 156.672 533.293 157.419 535.683 158.912C538.115 160.363 539.992 162.389 541.315 164.992C542.637 167.595 543.299 170.56 543.299 173.888C543.299 174.571 543.085 175.125 542.659 175.552C542.232 175.936 541.677 176.128 540.995 176.128H513.795V172.032H541.507L538.755 174.016C538.797 171.541 538.349 169.323 537.411 167.36C536.472 165.397 535.128 163.861 533.379 162.752C531.672 161.643 529.624 161.088 527.235 161.088C524.803 161.088 522.669 161.664 520.835 162.816C519 163.968 517.571 165.568 516.547 167.616C515.565 169.621 515.075 171.925 515.075 174.528C515.075 177.131 515.629 179.435 516.739 181.44C517.891 183.445 519.448 185.024 521.411 186.176C523.373 187.328 525.635 187.904 528.195 187.904C529.731 187.904 531.267 187.648 532.803 187.136C534.381 186.581 535.64 185.899 536.579 185.088C537.048 184.704 537.581 184.512 538.179 184.512C538.776 184.469 539.288 184.619 539.715 184.96C540.269 185.472 540.547 186.027 540.547 186.624C540.589 187.221 540.355 187.733 539.843 188.16C538.435 189.355 536.643 190.357 534.467 191.168C532.291 191.936 530.2 192.32 528.195 192.32ZM574.737 192C574.097 192 573.542 191.787 573.073 191.36C572.604 190.891 572.369 190.272 572.369 189.504V157.056C572.369 154.069 572.881 151.445 573.905 149.184C574.929 146.923 576.444 145.173 578.449 143.936C580.454 142.656 582.908 142.016 585.809 142.016C586.534 142.016 587.132 142.229 587.601 142.656C588.07 143.083 588.305 143.616 588.305 144.256C588.305 144.896 588.07 145.429 587.601 145.856C587.132 146.283 586.534 146.496 585.809 146.496C583.889 146.496 582.289 146.944 581.009 147.84C579.772 148.693 578.833 149.909 578.193 151.488C577.596 153.024 577.297 154.795 577.297 156.8V189.504C577.297 190.272 577.062 190.891 576.593 191.36C576.166 191.787 575.548 192 574.737 192ZM568.273 162.56C567.59 162.56 567.036 162.368 566.609 161.984C566.225 161.557 566.033 161.045 566.033 160.448C566.033 159.808 566.225 159.296 566.609 158.912C567.036 158.485 567.59 158.272 568.273 158.272H584.977C585.66 158.272 586.193 158.485 586.577 158.912C587.004 159.296 587.217 159.808 587.217 160.448C587.217 161.045 587.004 161.557 586.577 161.984C586.193 162.368 585.66 162.56 584.977 162.56H568.273ZM608.509 192.32C605.095 192.32 602.045 191.552 599.357 190.016C596.669 188.48 594.557 186.368 593.021 183.68C591.485 180.992 590.717 177.941 590.717 174.528C590.717 171.072 591.485 168 593.021 165.312C594.557 162.624 596.669 160.512 599.357 158.976C602.045 157.44 605.095 156.672 608.509 156.672C611.922 156.672 614.951 157.44 617.597 158.976C620.285 160.512 622.397 162.624 623.933 165.312C625.469 168 626.258 171.072 626.301 174.528C626.301 177.941 625.511 180.992 623.933 183.68C622.397 186.368 620.285 188.48 617.597 190.016C614.951 191.552 611.922 192.32 608.509 192.32ZM608.509 187.84C610.983 187.84 613.202 187.264 615.165 186.112C617.127 184.96 618.663 183.381 619.773 181.376C620.882 179.371 621.437 177.088 621.437 174.528C621.437 171.968 620.882 169.685 619.773 167.68C618.663 165.632 617.127 164.032 615.165 162.88C613.202 161.728 610.983 161.152 608.509 161.152C606.034 161.152 603.815 161.728 601.853 162.88C599.89 164.032 598.333 165.632 597.181 167.68C596.071 169.685 595.517 171.968 595.517 174.528C595.517 177.088 596.071 179.371 597.181 181.376C598.333 183.381 599.89 184.96 601.853 186.112C603.815 187.264 606.034 187.84 608.509 187.84ZM637.933 170.432C638.061 167.787 638.744 165.419 639.981 163.328C641.261 161.237 642.904 159.595 644.909 158.4C646.957 157.205 649.218 156.608 651.693 156.608C653.656 156.608 655.17 156.885 656.237 157.44C657.304 157.995 657.709 158.805 657.453 159.872C657.282 160.512 656.984 160.939 656.557 161.152C656.173 161.365 655.682 161.451 655.085 161.408C654.53 161.365 653.89 161.323 653.165 161.28C650.776 161.067 648.642 161.323 646.765 162.048C644.93 162.731 643.458 163.797 642.349 165.248C641.282 166.699 640.749 168.427 640.749 170.432H637.933ZM638.317 192C637.549 192 636.952 191.787 636.525 191.36C636.098 190.933 635.885 190.336 635.885 189.568V159.424C635.885 158.656 636.098 158.059 636.525 157.632C636.952 157.205 637.549 156.992 638.317 156.992C639.085 156.992 639.682 157.205 640.109 157.632C640.536 158.059 640.749 158.656 640.749 159.424V189.568C640.749 190.336 640.536 190.933 640.109 191.36C639.682 191.787 639.085 192 638.317 192ZM691.5 192C689.793 192 688.257 191.531 686.892 190.592C685.569 189.653 684.524 188.352 683.756 186.688C683.03 185.024 682.668 183.104 682.668 180.928V144.448C682.668 143.723 682.881 143.147 683.308 142.72C683.777 142.251 684.374 142.016 685.1 142.016C685.825 142.016 686.401 142.251 686.828 142.72C687.297 143.147 687.532 143.723 687.532 144.448V180.928C687.532 182.763 687.894 184.256 688.62 185.408C689.388 186.56 690.348 187.136 691.5 187.136H693.1C693.74 187.136 694.252 187.371 694.635 187.84C695.02 188.267 695.212 188.843 695.212 189.568C695.212 190.293 694.934 190.891 694.38 191.36C693.868 191.787 693.185 192 692.332 192H691.5ZM705.53 192C704.762 192 704.143 191.787 703.674 191.36C703.247 190.891 703.034 190.272 703.034 189.504V159.488C703.034 158.72 703.247 158.123 703.674 157.696C704.143 157.227 704.762 156.992 705.53 156.992C706.255 156.992 706.831 157.227 707.258 157.696C707.727 158.123 707.962 158.72 707.962 159.488V189.504C707.962 190.272 707.727 190.891 707.258 191.36C706.831 191.787 706.255 192 705.53 192ZM705.466 150.336C704.527 150.336 703.717 149.995 703.034 149.312C702.351 148.629 702.01 147.797 702.01 146.816C702.01 145.749 702.351 144.917 703.034 144.32C703.759 143.68 704.591 143.36 705.53 143.36C706.426 143.36 707.215 143.68 707.898 144.32C708.623 144.917 708.986 145.749 708.986 146.816C708.986 147.797 708.645 148.629 707.962 149.312C707.279 149.995 706.447 150.336 705.466 150.336ZM724.862 192C724.222 192 723.667 191.787 723.198 191.36C722.729 190.891 722.494 190.272 722.494 189.504V157.056C722.494 154.069 723.006 151.445 724.03 149.184C725.054 146.923 726.569 145.173 728.574 143.936C730.579 142.656 733.033 142.016 735.934 142.016C736.659 142.016 737.257 142.229 737.726 142.656C738.195 143.083 738.43 143.616 738.43 144.256C738.43 144.896 738.195 145.429 737.726 145.856C737.257 146.283 736.659 146.496 735.934 146.496C734.014 146.496 732.414 146.944 731.134 147.84C729.897 148.693 728.958 149.909 728.318 151.488C727.721 153.024 727.422 154.795 727.422 156.8V189.504C727.422 190.272 727.187 190.891 726.718 191.36C726.291 191.787 725.673 192 724.862 192ZM718.398 162.56C717.715 162.56 717.161 162.368 716.734 161.984C716.35 161.557 716.158 161.045 716.158 160.448C716.158 159.808 716.35 159.296 716.734 158.912C717.161 158.485 717.715 158.272 718.398 158.272H735.102C735.785 158.272 736.318 158.485 736.702 158.912C737.129 159.296 737.342 159.808 737.342 160.448C737.342 161.045 737.129 161.557 736.702 161.984C736.318 162.368 735.785 162.56 735.102 162.56H718.398ZM758.57 192.32C755.114 192.32 752.042 191.573 749.354 190.08C746.708 188.544 744.617 186.432 743.082 183.744C741.588 181.056 740.842 177.984 740.842 174.528C740.842 171.029 741.546 167.957 742.954 165.312C744.404 162.624 746.388 160.512 748.906 158.976C751.423 157.44 754.324 156.672 757.61 156.672C760.852 156.672 763.668 157.419 766.058 158.912C768.49 160.363 770.367 162.389 771.69 164.992C773.012 167.595 773.674 170.56 773.674 173.888C773.674 174.571 773.46 175.125 773.034 175.552C772.607 175.936 772.052 176.128 771.37 176.128H744.17V172.032H771.882L769.13 174.016C769.172 171.541 768.724 169.323 767.786 167.36C766.847 165.397 765.503 163.861 763.754 162.752C762.047 161.643 759.999 161.088 757.61 161.088C755.178 161.088 753.044 161.664 751.21 162.816C749.375 163.968 747.946 165.568 746.922 167.616C745.94 169.621 745.45 171.925 745.45 174.528C745.45 177.131 746.004 179.435 747.114 181.44C748.266 183.445 749.823 185.024 751.786 186.176C753.748 187.328 756.01 187.904 758.57 187.904C760.106 187.904 761.642 187.648 763.178 187.136C764.756 186.581 766.015 185.899 766.954 185.088C767.423 184.704 767.956 184.512 768.554 184.512C769.151 184.469 769.663 184.619 770.09 184.96C770.644 185.472 770.922 186.027 770.922 186.624C770.964 187.221 770.73 187.733 770.218 188.16C768.81 189.355 767.018 190.357 764.842 191.168C762.666 191.936 760.575 192.32 758.57 192.32ZM783.162 180.672C782.479 180.672 781.882 180.437 781.37 179.968C780.901 179.456 780.666 178.859 780.666 178.176V144.512C780.666 143.787 780.901 143.189 781.37 142.72C781.882 142.208 782.479 141.952 783.162 141.952C783.887 141.952 784.485 142.208 784.954 142.72C785.423 143.189 785.658 143.787 785.658 144.512V178.176C785.658 178.859 785.402 179.456 784.89 179.968C784.378 180.437 783.802 180.672 783.162 180.672ZM783.162 192C782.138 192 781.263 191.637 780.538 190.912C779.813 190.187 779.45 189.312 779.45 188.288C779.45 187.221 779.813 186.325 780.538 185.6C781.263 184.875 782.138 184.512 783.162 184.512C784.186 184.512 785.061 184.896 785.786 185.664C786.511 186.389 786.874 187.264 786.874 188.288C786.874 189.312 786.511 190.187 785.786 190.912C785.061 191.637 784.186 192 783.162 192Z" fill="#094074"/>
</g>
<path id="Vector 2_2" d="M145 201.5C55.5 177 0 197.5 0 197.5L0.5 558L1660.5 559.5C1660.5 559.5 1567.5 503.5 1522.5 496C1477.5 488.5 1494 500.5 1449.5 505C1405 509.5 1294.5 489 1220 474.5C1145.5 460 1146.5 411 1088 420C1029.5 429 960 422 907.5 412.5C855 403 821.5 330 784 345.5C746.5 361 686.5 391 602.5 372.5C518.5 354 551.5 334 470 306C388.5 278 314.5 319 260 297C205.5 275 234.5 226 145 201.5Z" fill="url(#paint0_radial_266_617)"/>
<g id="Sand Dots1">
<circle id="Ellipse 6" cx="942" cy="305.5" r="5.5" fill="#FE9000" fill-opacity="0.31"/>
<circle id="Ellipse 6_2" cx="966" cy="329.5" r="5.5" fill="#FE9000" fill-opacity="0.31"/>
</g>
<g id="Sand Dots2">
<circle id="Ellipse 7" cx="1562" cy="425.5" r="5.5" fill="#FE9000" fill-opacity="0.31"/>
<circle id="Ellipse 8" cx="1537" cy="419.5" r="5.5" fill="#FE9000" fill-opacity="0.31"/>
</g>
<circle id="Ellipse 9" cx="182.5" cy="281" r="6" fill="white" fill-opacity="0.7"/>
<circle id="Ellipse 10" cx="168.5" cy="269" r="3" fill="white" fill-opacity="0.7"/>
<circle id="Ellipse 11" cx="164" cy="283.5" r="4.5" fill="white" fill-opacity="0.8"/>
<circle id="Ellipse 12" cx="780" cy="388.5" r="4.5" fill="white" fill-opacity="0.8"/>
<circle id="Ellipse 13" cx="794.5" cy="396" r="3" fill="white" fill-opacity="0.7"/>
<circle id="Ellipse 14" cx="1372.5" cy="513" r="3" fill="white" fill-opacity="0.7"/>
<circle id="Ellipse 15" cx="1379.5" cy="525" r="4" fill="white" fill-opacity="0.7"/>
</g>
<defs>
<radialGradient id="paint0_radial_266_617" cx="0" cy="0" r="1" gradientUnits="userSpaceOnUse" gradientTransform="translate(72.5 586.5) rotate(-1.42112) scale(1108.84 4975.86)">
<stop stop-color="#120974"/>
<stop offset="1" stop-color="#5ADBFF"/>
</radialGradient>
<clipPath id="clip0_266_617">
<rect width="2060" height="558" fill="white" transform="translate(0.5)"/>
</clipPath>
</defs>
</svg>
