<svg width="2061" height="561" viewBox="0 0 2061 561" fill="none" xmlns="http://www.w3.org/2000/svg">
<g clip-path="url(#clip0_427_573)">
<rect width="2060" height="558" transform="translate(0.5)" fill="#FFDD4A"/>
<path d="M215 166.5C159.676 118.957 91.7128 140.869 0.5 140.5V555.5L1827.5 561C1763.03 536.266 1754.66 547.545 1659.5 495C1594.29 466.274 1531.5 437.5 1487.5 449.5C1443.5 461.5 1343 441.5 1310.5 436.5C1278 431.5 1193.5 421 1137 385.5C1080.5 350 1034.5 375.5 976.5 369C918.5 362.5 885.604 350.723 837.5 305C807.548 274.206 756.421 289.554 662 320C627.419 328.818 603.801 328.902 509 268.5C479.301 251.106 458.516 242.719 330 258C288.978 259.635 262.551 227.615 215 166.5Z" fill="white" stroke="white"/>
<path d="M1738.12 26.2058C1732.11 22.9599 1722.75 21.0124 1716.07 26.2058C1709.39 31.3993 1709.39 32.6977 1706.72 35.9436C1704.05 39.1895 1701.06 48.1015 1706.72 58.6649C1712.39 69.2283 1718.08 75.5436 1722.75 78.7896C1727.43 82.0355 1738.68 78.7174 1746.8 84.6322C1754.92 90.5469 1762.83 96.9666 1766.84 98.9142C1770.85 100.862 1777.53 104.757 1784.21 98.9142C1790.89 93.0716 1788.88 83.983 1784.21 78.7896C1779.53 73.5961 1772.85 72.2977 1766.84 65.1567C1760.83 58.0157 1761.5 50.2256 1756.82 43.0846C1752.15 35.9436 1744.13 29.4517 1738.12 26.2058Z" fill="#FE9000" stroke="#FE9000"/>
<path d="M1743.12 26.2058C1737.11 22.9599 1727.75 21.0124 1721.07 26.2058C1714.39 31.3993 1714.39 32.6977 1711.72 35.9436C1709.05 39.1895 1706.06 48.1015 1711.72 58.6649C1717.39 69.2283 1723.08 75.5436 1727.75 78.7896C1732.43 82.0355 1743.68 78.7174 1751.8 84.6322C1759.92 90.5469 1767.83 96.9666 1771.84 98.9142C1775.85 100.862 1782.53 104.757 1789.21 98.9142C1795.89 93.0716 1793.88 83.983 1789.21 78.7896C1784.53 73.5961 1777.85 72.2977 1771.84 65.1567C1765.83 58.0157 1766.5 50.2256 1761.82 43.0846C1757.15 35.9436 1749.13 29.4517 1743.12 26.2058Z" fill="#FE9000" fill-opacity="0.31" stroke="#FE9000" stroke-opacity="0.31"/>
<path d="M1894.15 60.2058C1887.79 56.9599 1877.89 55.0124 1870.81 60.2058C1863.74 65.3993 1863.74 66.6977 1860.91 69.9436C1858.08 73.1895 1854.91 82.1015 1860.91 92.6649C1866.91 103.228 1872.93 109.544 1877.89 112.79C1882.84 116.035 1894.75 112.717 1903.35 118.632C1911.94 124.547 1920.32 130.967 1924.57 132.914C1928.81 134.862 1935.88 138.757 1942.96 132.914C1950.03 127.072 1947.91 117.983 1942.96 112.79C1938.01 107.596 1930.93 106.298 1924.57 99.1567C1918.2 92.0157 1918.91 84.2256 1913.96 77.0846C1909.01 69.9436 1900.52 63.4517 1894.15 60.2058Z" fill="#FE9000" stroke="#FE9000"/>
<path d="M1897.15 60.2058C1890.79 56.9599 1880.89 55.0124 1873.81 60.2058C1866.74 65.3993 1866.74 66.6977 1863.91 69.9436C1861.08 73.1895 1857.91 82.1015 1863.91 92.6649C1869.91 103.228 1875.93 109.544 1880.89 112.79C1885.84 116.035 1897.75 112.717 1906.35 118.632C1914.94 124.547 1923.32 130.967 1927.57 132.914C1931.81 134.862 1938.88 138.757 1945.96 132.914C1953.03 127.072 1950.91 117.983 1945.96 112.79C1941.01 107.596 1933.93 106.298 1927.57 99.1567C1921.2 92.0157 1921.91 84.2256 1916.96 77.0846C1912.01 69.9436 1903.52 63.4517 1897.15 60.2058Z" fill="#FE9000" fill-opacity="0.31" stroke="#FE9000" stroke-opacity="0.31"/>
<path d="M1968.29 198.244C1962.25 195 1952.85 193.053 1946.14 198.244C1939.42 203.435 1939.42 204.733 1936.74 207.977C1934.05 211.221 1931.04 220.129 1936.74 230.687C1942.43 241.245 1948.15 247.557 1952.85 250.801C1957.55 254.046 1968.86 250.729 1977.02 256.641C1985.17 262.553 1993.13 268.969 1997.15 270.916C2001.18 272.862 2007.89 276.755 2014.61 270.916C2021.32 265.076 2019.31 255.992 2014.61 250.801C2009.91 245.61 2003.2 244.313 1997.15 237.175C1991.11 230.038 1991.78 222.252 1987.08 215.114C1982.39 207.977 1974.33 201.489 1968.29 198.244Z" fill="#FE9000" stroke="#FE9000"/>
<path d="M1972.87 198.204C1966.83 194.96 1957.43 193.013 1950.72 198.204C1944 203.395 1944 204.693 1941.32 207.937C1938.63 211.181 1935.62 220.089 1941.32 230.647C1947.01 241.205 1952.73 247.517 1957.43 250.761C1962.13 254.006 1973.44 250.689 1981.6 256.601C1989.75 262.513 1997.71 268.929 2001.73 270.876C2005.76 272.822 2012.48 276.715 2019.19 270.876C2025.9 265.036 2023.89 255.952 2019.19 250.761C2014.49 245.57 2007.78 244.273 2001.73 237.135C1995.69 229.998 1996.36 222.212 1991.66 215.074C1986.97 207.937 1978.91 201.448 1972.87 198.204Z" fill="#FE9000" fill-opacity="0.31" stroke="#FE9000" stroke-opacity="0.31"/>
<path d="M1850.01 381C1844.51 379.5 1826.01 420 1826.01 420C1826.01 420 1793.01 413 1793.51 420C1794.01 427 1821.01 446 1821.01 446C1821.01 446 1797.51 472.5 1803.01 478.5C1808.51 484.5 1833.01 462.5 1833.01 462.5C1833.01 462.5 1851.51 494 1858.01 493C1864.51 492 1858.01 453.5 1858.01 453.5C1858.01 453.5 1894.51 443.5 1890.51 436.5C1886.51 429.5 1858.01 426 1858.01 426C1858.01 426 1855.51 382.5 1850.01 381Z" fill="#FE9000" stroke="#FE9000"/>
<circle cx="1851.51" cy="428" r="1.5" fill="#FFDD4A" stroke="#FFDD4A"/>
<circle cx="1848.01" cy="437.5" r="3.5" fill="#FFDD4A"/>
<circle cx="1857.01" cy="434.5" r="1.5" fill="#FFDD4A"/>
<path d="M1854.01 378.041C1848.51 376.541 1830.01 417.041 1830.01 417.041C1830.01 417.041 1797.01 410.041 1797.51 417.041C1798.01 424.041 1825.01 443.041 1825.01 443.041C1825.01 443.041 1801.51 469.541 1807.01 475.541C1812.51 481.541 1837.01 459.541 1837.01 459.541C1837.01 459.541 1855.51 491.041 1862.01 490.041C1868.51 489.041 1862.01 450.541 1862.01 450.541C1862.01 450.541 1898.51 440.541 1894.51 433.541C1890.51 426.541 1862.01 423.041 1862.01 423.041C1862.01 423.041 1859.51 379.541 1854.01 378.041Z" fill="#FE9000" fill-opacity="0.31" stroke="#FE9000" stroke-opacity="0.31"/>
<path d="M230 163.724C174.676 116.182 106.713 138.093 15.5 137.724V552.724L1842.5 558.224C1778.03 533.49 1769.66 544.769 1674.5 492.224C1609.29 463.498 1546.5 434.724 1502.5 446.724C1458.5 458.724 1358 438.724 1325.5 433.724C1293 428.724 1208.5 418.224 1152 382.724C1095.5 347.224 1049.5 372.724 991.5 366.224C933.5 359.724 900.604 347.947 852.5 302.224C822.548 271.43 771.421 286.778 677 317.224C642.419 326.043 618.801 326.127 524 265.724C494.301 248.33 473.516 239.943 345 255.224C303.978 256.86 277.551 224.84 230 163.724Z" fill="white" fill-opacity="0.31" stroke="white" stroke-opacity="0.31"/>
<path d="M160.5 200.032C71 175.532 15.5 196.032 15.5 196.032L16 556.532L1676 558.032C1676 558.032 1583 502.032 1538 494.532C1493 487.032 1509.5 499.032 1465 503.532C1420.5 508.032 1310 487.532 1235.5 473.032C1161 458.532 1162 409.532 1103.5 418.532C1045 427.532 975.5 420.532 923 411.032C870.5 401.532 837 328.532 799.5 344.032C762 359.532 702 389.532 618 371.032C534 352.532 567 332.532 485.5 304.532C404 276.532 330 317.532 275.5 295.532C221 273.532 250 224.532 160.5 200.032Z" fill="#094074" fill-opacity="0.31"/>
<path d="M280.526 111C279.928 111 279.395 110.808 278.926 110.424C278.499 110.04 278.2 109.549 278.03 108.952L264.91 64.6C264.611 63.576 264.654 62.7227 265.038 62.04C265.464 61.3573 266.126 61.016 267.022 61.016C267.534 61.016 268.003 61.1653 268.43 61.464C268.899 61.72 269.24 62.2107 269.454 62.936L281.294 104.152H279.822L291.022 64.024C291.15 63.5547 291.427 63.1707 291.854 62.872C292.323 62.5733 292.835 62.424 293.39 62.424C293.902 62.424 294.392 62.5733 294.862 62.872C295.331 63.128 295.63 63.5333 295.757 64.088L307.022 104.152H305.55L317.454 62.68C317.752 61.5707 318.563 61.016 319.886 61.016C320.782 61.016 321.4 61.3787 321.742 62.104C322.083 62.7867 322.126 63.6187 321.87 64.6L308.814 108.888C308.6 109.571 308.259 110.104 307.79 110.488C307.363 110.829 306.851 111 306.254 111C305.656 111 305.123 110.808 304.654 110.424C304.227 110.04 303.928 109.549 303.758 108.952L292.622 68.312H294.158L283.086 108.888C282.872 109.528 282.531 110.04 282.062 110.424C281.635 110.808 281.123 111 280.526 111ZM338.07 111.32C334.614 111.32 331.542 110.573 328.854 109.08C326.208 107.544 324.117 105.432 322.582 102.744C321.088 100.056 320.342 96.984 320.342 93.528C320.342 90.0293 321.046 86.9573 322.454 84.312C323.904 81.624 325.888 79.512 328.406 77.976C330.923 76.44 333.824 75.672 337.11 75.672C340.352 75.672 343.168 76.4187 345.558 77.912C347.99 79.3627 349.867 81.3893 351.19 83.992C352.512 86.5947 353.174 89.56 353.174 92.888C353.174 93.5707 352.96 94.1253 352.534 94.552C352.107 94.936 351.552 95.128 350.87 95.128H323.67V91.032H351.382L348.63 93.016C348.672 90.5413 348.224 88.3227 347.286 86.36C346.347 84.3973 345.003 82.8613 343.254 81.752C341.547 80.6427 339.499 80.088 337.11 80.088C334.678 80.088 332.544 80.664 330.71 81.816C328.875 82.968 327.446 84.568 326.422 86.616C325.44 88.6213 324.95 90.9253 324.95 93.528C324.95 96.1307 325.504 98.4347 326.614 100.44C327.766 102.445 329.323 104.024 331.286 105.176C333.248 106.328 335.51 106.904 338.07 106.904C339.606 106.904 341.142 106.648 342.678 106.136C344.256 105.581 345.515 104.899 346.454 104.088C346.923 103.704 347.456 103.512 348.054 103.512C348.651 103.469 349.163 103.619 349.59 103.96C350.144 104.472 350.422 105.027 350.422 105.624C350.464 106.221 350.23 106.733 349.718 107.16C348.31 108.355 346.518 109.357 344.342 110.168C342.166 110.936 340.075 111.32 338.07 111.32ZM369.062 111C367.355 111 365.819 110.531 364.454 109.592C363.131 108.653 362.086 107.352 361.318 105.688C360.593 104.024 360.23 102.104 360.23 99.928V63.448C360.23 62.7227 360.443 62.1467 360.87 61.72C361.339 61.2507 361.937 61.016 362.662 61.016C363.387 61.016 363.963 61.2507 364.39 61.72C364.859 62.1467 365.094 62.7227 365.094 63.448V99.928C365.094 101.763 365.457 103.256 366.182 104.408C366.95 105.56 367.91 106.136 369.062 106.136H370.662C371.302 106.136 371.814 106.371 372.198 106.84C372.582 107.267 372.774 107.843 372.774 108.568C372.774 109.293 372.497 109.891 371.942 110.36C371.43 110.787 370.747 111 369.894 111H369.062ZM393.251 111.32C389.88 111.32 386.872 110.552 384.227 109.016C381.624 107.437 379.555 105.304 378.019 102.616C376.526 99.928 375.779 96.8987 375.779 93.528C375.779 90.1147 376.504 87.064 377.955 84.376C379.406 81.688 381.39 79.576 383.907 78.04C386.424 76.4613 389.326 75.672 392.611 75.672C395.214 75.672 397.603 76.184 399.779 77.208C401.998 78.232 403.939 79.768 405.603 81.816C406.072 82.328 406.243 82.8827 406.115 83.48C405.987 84.0347 405.624 84.5253 405.027 84.952C404.558 85.2933 404.024 85.4213 403.427 85.336C402.872 85.208 402.382 84.888 401.955 84.376C399.48 81.56 396.366 80.152 392.611 80.152C390.222 80.152 388.11 80.728 386.275 81.88C384.483 83.032 383.075 84.6107 382.051 86.616C381.07 88.6213 380.579 90.9253 380.579 93.528C380.579 96.088 381.112 98.3707 382.179 100.376C383.246 102.381 384.739 103.96 386.659 105.112C388.579 106.264 390.776 106.84 393.251 106.84C394.915 106.84 396.43 106.627 397.795 106.2C399.203 105.731 400.44 105.027 401.507 104.088C402.019 103.661 402.552 103.427 403.107 103.384C403.662 103.341 404.174 103.512 404.643 103.896C405.155 104.365 405.432 104.899 405.475 105.496C405.56 106.093 405.368 106.605 404.899 107.032C401.784 109.891 397.902 111.32 393.251 111.32ZM431.634 111.32C428.22 111.32 425.17 110.552 422.482 109.016C419.794 107.48 417.682 105.368 416.146 102.68C414.61 99.992 413.842 96.9413 413.842 93.528C413.842 90.072 414.61 87 416.146 84.312C417.682 81.624 419.794 79.512 422.482 77.976C425.17 76.44 428.22 75.672 431.634 75.672C435.047 75.672 438.076 76.44 440.722 77.976C443.41 79.512 445.522 81.624 447.058 84.312C448.594 87 449.383 90.072 449.426 93.528C449.426 96.9413 448.636 99.992 447.058 102.68C445.522 105.368 443.41 107.48 440.722 109.016C438.076 110.552 435.047 111.32 431.634 111.32ZM431.634 106.84C434.108 106.84 436.327 106.264 438.29 105.112C440.252 103.96 441.788 102.381 442.898 100.376C444.007 98.3707 444.562 96.088 444.562 93.528C444.562 90.968 444.007 88.6853 442.898 86.68C441.788 84.632 440.252 83.032 438.29 81.88C436.327 80.728 434.108 80.152 431.634 80.152C429.159 80.152 426.94 80.728 424.978 81.88C423.015 83.032 421.458 84.632 420.306 86.68C419.196 88.6853 418.642 90.968 418.642 93.528C418.642 96.088 419.196 98.3707 420.306 100.376C421.458 102.381 423.015 103.96 424.978 105.112C426.94 106.264 429.159 106.84 431.634 106.84ZM506.306 111C505.581 111 504.983 110.787 504.514 110.36C504.045 109.891 503.81 109.293 503.81 108.568V90.136C503.81 87.1067 503.021 84.7173 501.442 82.968C499.863 81.176 497.837 80.28 495.362 80.28C492.717 80.28 490.541 81.176 488.834 82.968C487.17 84.7173 486.359 87.064 486.402 90.008H481.986C482.029 87.1493 482.647 84.632 483.842 82.456C485.037 80.28 486.679 78.5947 488.77 77.4C490.861 76.2053 493.229 75.608 495.874 75.608C498.391 75.608 500.61 76.2053 502.53 77.4C504.493 78.5947 506.007 80.28 507.074 82.456C508.183 84.632 508.738 87.192 508.738 90.136V108.568C508.738 109.293 508.503 109.891 508.034 110.36C507.607 110.787 507.031 111 506.306 111ZM461.506 111C460.738 111 460.119 110.787 459.65 110.36C459.223 109.891 459.01 109.293 459.01 108.568V78.488C459.01 77.7627 459.223 77.1653 459.65 76.696C460.119 76.2267 460.738 75.992 461.506 75.992C462.231 75.992 462.807 76.2267 463.234 76.696C463.703 77.1653 463.938 77.7627 463.938 78.488V108.568C463.938 109.293 463.703 109.891 463.234 110.36C462.807 110.787 462.231 111 461.506 111ZM483.97 111C483.245 111 482.647 110.787 482.178 110.36C481.709 109.891 481.474 109.293 481.474 108.568V90.136C481.474 87.1067 480.685 84.7173 479.106 82.968C477.527 81.176 475.501 80.28 473.026 80.28C470.381 80.28 468.205 81.1547 466.498 82.904C464.791 84.6107 463.938 86.8507 463.938 89.624H460.418C460.503 86.8933 461.101 84.4827 462.21 82.392C463.362 80.2587 464.919 78.5947 466.882 77.4C468.845 76.2053 471.063 75.608 473.538 75.608C476.055 75.608 478.274 76.2053 480.194 77.4C482.157 78.5947 483.671 80.28 484.738 82.456C485.847 84.632 486.402 87.192 486.402 90.136V108.568C486.402 109.293 486.167 109.891 485.698 110.36C485.271 110.787 484.695 111 483.97 111ZM535.507 111.32C532.051 111.32 528.979 110.573 526.291 109.08C523.646 107.544 521.555 105.432 520.019 102.744C518.526 100.056 517.779 96.984 517.779 93.528C517.779 90.0293 518.483 86.9573 519.891 84.312C521.342 81.624 523.326 79.512 525.843 77.976C528.36 76.44 531.262 75.672 534.547 75.672C537.79 75.672 540.606 76.4187 542.995 77.912C545.427 79.3627 547.304 81.3893 548.627 83.992C549.95 86.5947 550.611 89.56 550.611 92.888C550.611 93.5707 550.398 94.1253 549.971 94.552C549.544 94.936 548.99 95.128 548.307 95.128H521.107V91.032H548.819L546.067 93.016C546.11 90.5413 545.662 88.3227 544.723 86.36C543.784 84.3973 542.44 82.8613 540.691 81.752C538.984 80.6427 536.936 80.088 534.547 80.088C532.115 80.088 529.982 80.664 528.147 81.816C526.312 82.968 524.883 84.568 523.859 86.616C522.878 88.6213 522.387 90.9253 522.387 93.528C522.387 96.1307 522.942 98.4347 524.051 100.44C525.203 102.445 526.76 104.024 528.723 105.176C530.686 106.328 532.947 106.904 535.507 106.904C537.043 106.904 538.579 106.648 540.115 106.136C541.694 105.581 542.952 104.899 543.891 104.088C544.36 103.704 544.894 103.512 545.491 103.512C546.088 103.469 546.6 103.619 547.027 103.96C547.582 104.472 547.859 105.027 547.859 105.624C547.902 106.221 547.667 106.733 547.155 107.16C545.747 108.355 543.955 109.357 541.779 110.168C539.603 110.936 537.512 111.32 535.507 111.32ZM591.394 111C589.132 111 587.106 110.467 585.314 109.4C583.564 108.333 582.178 106.883 581.154 105.048C580.13 103.171 579.618 101.037 579.618 98.648V67.352C579.618 66.6267 579.831 66.0293 580.258 65.56C580.727 65.0907 581.324 64.856 582.05 64.856C582.775 64.856 583.372 65.0907 583.842 65.56C584.311 66.0293 584.546 66.6267 584.546 67.352V98.648C584.546 100.824 585.186 102.616 586.466 104.024C587.746 105.389 589.388 106.072 591.394 106.072H593.122C593.804 106.072 594.359 106.307 594.786 106.776C595.212 107.245 595.426 107.843 595.426 108.568C595.426 109.293 595.17 109.891 594.658 110.36C594.146 110.787 593.506 111 592.738 111H591.394ZM575.458 81.56C574.818 81.56 574.284 81.368 573.858 80.984C573.431 80.5573 573.218 80.0453 573.218 79.448C573.218 78.808 573.431 78.296 573.858 77.912C574.284 77.4853 574.818 77.272 575.458 77.272H591.778C592.418 77.272 592.951 77.4853 593.378 77.912C593.804 78.296 594.018 78.808 594.018 79.448C594.018 80.0453 593.804 80.5573 593.378 80.984C592.951 81.368 592.418 81.56 591.778 81.56H575.458ZM619.384 111.32C615.97 111.32 612.92 110.552 610.232 109.016C607.544 107.48 605.432 105.368 603.896 102.68C602.36 99.992 601.592 96.9413 601.592 93.528C601.592 90.072 602.36 87 603.896 84.312C605.432 81.624 607.544 79.512 610.232 77.976C612.92 76.44 615.97 75.672 619.384 75.672C622.797 75.672 625.826 76.44 628.472 77.976C631.16 79.512 633.272 81.624 634.808 84.312C636.344 87 637.133 90.072 637.176 93.528C637.176 96.9413 636.386 99.992 634.808 102.68C633.272 105.368 631.16 107.48 628.472 109.016C625.826 110.552 622.797 111.32 619.384 111.32ZM619.384 106.84C621.858 106.84 624.077 106.264 626.04 105.112C628.002 103.96 629.538 102.381 630.648 100.376C631.757 98.3707 632.312 96.088 632.312 93.528C632.312 90.968 631.757 88.6853 630.648 86.68C629.538 84.632 628.002 83.032 626.04 81.88C624.077 80.728 621.858 80.152 619.384 80.152C616.909 80.152 614.69 80.728 612.728 81.88C610.765 83.032 609.208 84.632 608.056 86.68C606.946 88.6853 606.392 90.968 606.392 93.528C606.392 96.088 606.946 98.3707 608.056 100.376C609.208 102.381 610.765 103.96 612.728 105.112C614.69 106.264 616.909 106.84 619.384 106.84ZM668.646 111C667.921 111 667.323 110.765 666.854 110.296C666.385 109.827 666.15 109.229 666.15 108.504V63.512C666.15 62.7867 666.385 62.1893 666.854 61.72C667.323 61.2507 667.921 61.016 668.646 61.016C669.371 61.016 669.969 61.2507 670.438 61.72C670.907 62.1893 671.142 62.7867 671.142 63.512V83.48H702.374V63.512C702.374 62.7867 702.609 62.1893 703.078 61.72C703.547 61.2507 704.145 61.016 704.87 61.016C705.595 61.016 706.193 61.2507 706.662 61.72C707.131 62.1893 707.366 62.7867 707.366 63.512V108.504C707.366 109.229 707.131 109.827 706.662 110.296C706.193 110.765 705.595 111 704.87 111C704.145 111 703.547 110.765 703.078 110.296C702.609 109.827 702.374 109.229 702.374 108.504V87.96H671.142V108.504C671.142 109.229 670.907 109.827 670.438 110.296C669.969 110.765 669.371 111 668.646 111ZM735.446 111.32C732.033 111.32 728.982 110.552 726.294 109.016C723.606 107.48 721.494 105.368 719.958 102.68C718.422 99.992 717.654 96.9413 717.654 93.528C717.654 90.072 718.422 87 719.958 84.312C721.494 81.624 723.606 79.512 726.294 77.976C728.982 76.44 732.033 75.672 735.446 75.672C738.859 75.672 741.889 76.44 744.534 77.976C747.222 79.512 749.334 81.624 750.87 84.312C752.406 87 753.195 90.072 753.238 93.528C753.238 96.9413 752.449 99.992 750.87 102.68C749.334 105.368 747.222 107.48 744.534 109.016C741.889 110.552 738.859 111.32 735.446 111.32ZM735.446 106.84C737.921 106.84 740.139 106.264 742.102 105.112C744.065 103.96 745.601 102.381 746.71 100.376C747.819 98.3707 748.374 96.088 748.374 93.528C748.374 90.968 747.819 88.6853 746.71 86.68C745.601 84.632 744.065 83.032 742.102 81.88C740.139 80.728 737.921 80.152 735.446 80.152C732.971 80.152 730.753 80.728 728.79 81.88C726.827 83.032 725.27 84.632 724.118 86.68C723.009 88.6853 722.454 90.968 722.454 93.528C722.454 96.088 723.009 98.3707 724.118 100.376C725.27 102.381 726.827 103.96 728.79 105.112C730.753 106.264 732.971 106.84 735.446 106.84ZM770.375 111C768.668 111 767.132 110.531 765.767 109.592C764.444 108.653 763.399 107.352 762.631 105.688C761.905 104.024 761.543 102.104 761.543 99.928V63.448C761.543 62.7227 761.756 62.1467 762.183 61.72C762.652 61.2507 763.249 61.016 763.975 61.016C764.7 61.016 765.276 61.2507 765.703 61.72C766.172 62.1467 766.407 62.7227 766.407 63.448V99.928C766.407 101.763 766.769 103.256 767.495 104.408C768.263 105.56 769.223 106.136 770.375 106.136H771.975C772.615 106.136 773.127 106.371 773.51 106.84C773.895 107.267 774.087 107.843 774.087 108.568C774.087 109.293 773.809 109.891 773.255 110.36C772.743 110.787 772.06 111 771.207 111H770.375ZM784.405 111C783.637 111 783.018 110.787 782.549 110.36C782.122 109.891 781.909 109.272 781.909 108.504V78.488C781.909 77.72 782.122 77.1227 782.549 76.696C783.018 76.2267 783.637 75.992 784.405 75.992C785.13 75.992 785.706 76.2267 786.133 76.696C786.602 77.1227 786.837 77.72 786.837 78.488V108.504C786.837 109.272 786.602 109.891 786.133 110.36C785.706 110.787 785.13 111 784.405 111ZM784.341 69.336C783.402 69.336 782.592 68.9947 781.909 68.312C781.226 67.6293 780.885 66.7973 780.885 65.816C780.885 64.7493 781.226 63.9173 781.909 63.32C782.634 62.68 783.466 62.36 784.405 62.36C785.301 62.36 786.09 62.68 786.773 63.32C787.498 63.9173 787.861 64.7493 787.861 65.816C787.861 66.7973 787.52 67.6293 786.837 68.312C786.154 68.9947 785.322 69.336 784.341 69.336ZM815.321 111.32C811.95 111.32 808.921 110.552 806.233 109.016C803.545 107.437 801.412 105.304 799.833 102.616C798.297 99.928 797.529 96.8773 797.529 93.464C797.529 90.0933 798.276 87.064 799.769 84.376C801.305 81.688 803.374 79.576 805.977 78.04C808.58 76.4613 811.524 75.672 814.809 75.672C817.668 75.672 820.249 76.2907 822.553 77.528C824.857 78.7227 826.713 80.3227 828.121 82.328V63.512C828.121 62.744 828.356 62.1467 828.825 61.72C829.294 61.2507 829.892 61.016 830.617 61.016C831.342 61.016 831.94 61.2507 832.409 61.72C832.878 62.1467 833.113 62.744 833.113 63.512V93.72C833.028 97.048 832.196 100.056 830.617 102.744C829.081 105.389 826.969 107.48 824.281 109.016C821.636 110.552 818.649 111.32 815.321 111.32ZM815.321 106.84C817.796 106.84 819.993 106.264 821.913 105.112C823.876 103.917 825.412 102.317 826.521 100.312C827.673 98.3067 828.249 96.024 828.249 93.464C828.249 90.9467 827.673 88.6853 826.521 86.68C825.412 84.632 823.876 83.032 821.913 81.88C819.993 80.728 817.796 80.152 815.321 80.152C812.889 80.152 810.692 80.728 808.729 81.88C806.766 83.032 805.209 84.632 804.057 86.68C802.905 88.6853 802.329 90.9467 802.329 93.464C802.329 96.024 802.905 98.3067 804.057 100.312C805.209 102.317 806.766 103.917 808.729 105.112C810.692 106.264 812.889 106.84 815.321 106.84ZM860.059 111.32C856.774 111.32 853.83 110.552 851.227 109.016C848.624 107.437 846.555 105.304 845.019 102.616C843.526 99.928 842.779 96.8987 842.779 93.528C842.779 90.1147 843.547 87.064 845.083 84.376C846.662 81.688 848.795 79.576 851.483 78.04C854.171 76.4613 857.2 75.672 860.571 75.672C863.942 75.672 866.95 76.4613 869.595 78.04C872.283 79.576 874.395 81.688 875.931 84.376C877.51 87.064 878.32 90.1147 878.363 93.528L876.379 95.064C876.379 98.136 875.654 100.909 874.203 103.384C872.795 105.816 870.854 107.757 868.379 109.208C865.947 110.616 863.174 111.32 860.059 111.32ZM860.571 106.84C863.046 106.84 865.243 106.264 867.163 105.112C869.126 103.96 870.662 102.381 871.771 100.376C872.923 98.328 873.499 96.0453 873.499 93.528C873.499 90.968 872.923 88.6853 871.771 86.68C870.662 84.6747 869.126 83.096 867.163 81.944C865.243 80.7493 863.046 80.152 860.571 80.152C858.139 80.152 855.942 80.7493 853.979 81.944C852.016 83.096 850.459 84.6747 849.307 86.68C848.155 88.6853 847.579 90.968 847.579 93.528C847.579 96.0453 848.155 98.328 849.307 100.376C850.459 102.381 852.016 103.96 853.979 105.112C855.942 106.264 858.139 106.84 860.571 106.84ZM875.867 111C875.142 111 874.544 110.787 874.075 110.36C873.606 109.891 873.371 109.293 873.371 108.568V97.624L874.587 92.568L878.363 93.528V108.568C878.363 109.293 878.128 109.891 877.659 110.36C877.19 110.787 876.592 111 875.867 111ZM893.964 126.232C893.622 126.232 893.238 126.147 892.812 125.976C891.361 125.336 890.955 124.312 891.595 122.904L912.268 77.336C912.908 75.9707 913.932 75.5867 915.34 76.184C916.79 76.7813 917.196 77.784 916.556 79.192L895.82 124.76C895.393 125.741 894.774 126.232 893.964 126.232ZM901.068 109.912C900.428 110.211 899.83 110.275 899.276 110.104C898.721 109.891 898.273 109.464 897.932 108.824L883.66 79.256C883.361 78.616 883.318 78.0187 883.532 77.464C883.745 76.9093 884.172 76.4827 884.812 76.184C885.452 75.8853 886.049 75.8427 886.604 76.056C887.158 76.2267 887.585 76.632 887.884 77.272L901.9 106.84C902.241 107.48 902.348 108.077 902.22 108.632C902.092 109.187 901.708 109.613 901.068 109.912ZM944.896 111C944.171 111 943.573 110.765 943.104 110.296C942.635 109.827 942.4 109.229 942.4 108.504V63.512C942.4 62.7867 942.635 62.1893 943.104 61.72C943.573 61.2507 944.171 61.016 944.896 61.016C945.621 61.016 946.219 61.2507 946.688 61.72C947.157 62.1893 947.392 62.7867 947.392 63.512V83.48H978.624V63.512C978.624 62.7867 978.859 62.1893 979.328 61.72C979.797 61.2507 980.395 61.016 981.12 61.016C981.845 61.016 982.443 61.2507 982.912 61.72C983.381 62.1893 983.616 62.7867 983.616 63.512V108.504C983.616 109.229 983.381 109.827 982.912 110.296C982.443 110.765 981.845 111 981.12 111C980.395 111 979.797 110.765 979.328 110.296C978.859 109.827 978.624 109.229 978.624 108.504V87.96H947.392V108.504C947.392 109.229 947.157 109.827 946.688 110.296C946.219 110.765 945.621 111 944.896 111ZM1011.63 111.32C1008.18 111.32 1005.1 110.573 1002.42 109.08C999.771 107.544 997.68 105.432 996.144 102.744C994.651 100.056 993.904 96.984 993.904 93.528C993.904 90.0293 994.608 86.9573 996.016 84.312C997.467 81.624 999.451 79.512 1001.97 77.976C1004.49 76.44 1007.39 75.672 1010.67 75.672C1013.91 75.672 1016.73 76.4187 1019.12 77.912C1021.55 79.3627 1023.43 81.3893 1024.75 83.992C1026.07 86.5947 1026.74 89.56 1026.74 92.888C1026.74 93.5707 1026.52 94.1253 1026.1 94.552C1025.67 94.936 1025.11 95.128 1024.43 95.128H997.232V91.032H1024.94L1022.19 93.016C1022.23 90.5413 1021.79 88.3227 1020.85 86.36C1019.91 84.3973 1018.57 82.8613 1016.82 81.752C1015.11 80.6427 1013.06 80.088 1010.67 80.088C1008.24 80.088 1006.11 80.664 1004.27 81.816C1002.44 82.968 1001.01 84.568 999.984 86.616C999.003 88.6213 998.512 90.9253 998.512 93.528C998.512 96.1307 999.067 98.4347 1000.18 100.44C1001.33 102.445 1002.89 104.024 1004.85 105.176C1006.81 106.328 1009.07 106.904 1011.63 106.904C1013.17 106.904 1014.7 106.648 1016.24 106.136C1017.82 105.581 1019.08 104.899 1020.02 104.088C1020.49 103.704 1021.02 103.512 1021.62 103.512C1022.21 103.469 1022.73 103.619 1023.15 103.96C1023.71 104.472 1023.98 105.027 1023.98 105.624C1024.03 106.221 1023.79 106.733 1023.28 107.16C1021.87 108.355 1020.08 109.357 1017.9 110.168C1015.73 110.936 1013.64 111.32 1011.63 111.32ZM1042.62 111C1040.92 111 1039.38 110.531 1038.02 109.592C1036.69 108.653 1035.65 107.352 1034.88 105.688C1034.16 104.024 1033.79 102.104 1033.79 99.928V63.448C1033.79 62.7227 1034.01 62.1467 1034.43 61.72C1034.9 61.2507 1035.5 61.016 1036.22 61.016C1036.95 61.016 1037.53 61.2507 1037.95 61.72C1038.42 62.1467 1038.66 62.7227 1038.66 63.448V99.928C1038.66 101.763 1039.02 103.256 1039.74 104.408C1040.51 105.56 1041.47 106.136 1042.62 106.136H1044.22C1044.86 106.136 1045.38 106.371 1045.76 106.84C1046.14 107.267 1046.34 107.843 1046.34 108.568C1046.34 109.293 1046.06 109.891 1045.5 110.36C1044.99 110.787 1044.31 111 1043.46 111H1042.62ZM1055.63 125.976C1054.86 125.976 1054.24 125.741 1053.78 125.272C1053.35 124.845 1053.14 124.248 1053.14 123.48V93.272C1053.18 89.944 1053.97 86.9573 1055.5 84.312C1057.08 81.624 1059.19 79.512 1061.84 77.976C1064.53 76.44 1067.54 75.672 1070.86 75.672C1074.28 75.672 1077.33 76.4613 1080.02 78.04C1082.7 79.576 1084.82 81.688 1086.35 84.376C1087.93 87.064 1088.72 90.1147 1088.72 93.528C1088.72 96.8987 1087.95 99.928 1086.42 102.616C1084.92 105.304 1082.87 107.437 1080.27 109.016C1077.67 110.552 1074.72 111.32 1071.44 111.32C1068.58 111.32 1065.98 110.723 1063.63 109.528C1061.33 108.291 1059.47 106.669 1058.06 104.664V123.48C1058.06 124.248 1057.83 124.845 1057.36 125.272C1056.93 125.741 1056.36 125.976 1055.63 125.976ZM1070.86 106.84C1073.34 106.84 1075.56 106.264 1077.52 105.112C1079.48 103.96 1081.02 102.381 1082.13 100.376C1083.28 98.328 1083.86 96.0453 1083.86 93.528C1083.86 90.968 1083.28 88.6853 1082.13 86.68C1081.02 84.6747 1079.48 83.096 1077.52 81.944C1075.56 80.7493 1073.34 80.152 1070.86 80.152C1068.43 80.152 1066.23 80.7493 1064.27 81.944C1062.31 83.096 1060.77 84.6747 1059.66 86.68C1058.55 88.6853 1058 90.968 1058 93.528C1058 96.0453 1058.55 98.328 1059.66 100.376C1060.77 102.381 1062.31 103.96 1064.27 105.112C1066.23 106.264 1068.43 106.84 1070.86 106.84ZM1114.26 111.32C1110.8 111.32 1107.73 110.573 1105.04 109.08C1102.4 107.544 1100.3 105.432 1098.77 102.744C1097.28 100.056 1096.53 96.984 1096.53 93.528C1096.53 90.0293 1097.23 86.9573 1098.64 84.312C1100.09 81.624 1102.08 79.512 1104.59 77.976C1107.11 76.44 1110.01 75.672 1113.3 75.672C1116.54 75.672 1119.36 76.4187 1121.75 77.912C1124.18 79.3627 1126.05 81.3893 1127.38 83.992C1128.7 86.5947 1129.36 89.56 1129.36 92.888C1129.36 93.5707 1129.15 94.1253 1128.72 94.552C1128.29 94.936 1127.74 95.128 1127.06 95.128H1099.86V91.032H1127.57L1124.82 93.016C1124.86 90.5413 1124.41 88.3227 1123.47 86.36C1122.53 84.3973 1121.19 82.8613 1119.44 81.752C1117.73 80.6427 1115.69 80.088 1113.3 80.088C1110.87 80.088 1108.73 80.664 1106.9 81.816C1105.06 82.968 1103.63 84.568 1102.61 86.616C1101.63 88.6213 1101.14 90.9253 1101.14 93.528C1101.14 96.1307 1101.69 98.4347 1102.8 100.44C1103.95 102.445 1105.51 104.024 1107.47 105.176C1109.44 106.328 1111.7 106.904 1114.26 106.904C1115.79 106.904 1117.33 106.648 1118.87 106.136C1120.44 105.581 1121.7 104.899 1122.64 104.088C1123.11 103.704 1123.64 103.512 1124.24 103.512C1124.84 103.469 1125.35 103.619 1125.78 103.96C1126.33 104.472 1126.61 105.027 1126.61 105.624C1126.65 106.221 1126.42 106.733 1125.91 107.16C1124.5 108.355 1122.71 109.357 1120.53 110.168C1118.35 110.936 1116.26 111.32 1114.26 111.32ZM1139.75 89.432C1139.87 86.7867 1140.56 84.4187 1141.79 82.328C1143.07 80.2373 1144.72 78.5947 1146.72 77.4C1148.77 76.2053 1151.03 75.608 1153.51 75.608C1155.47 75.608 1156.98 75.8853 1158.05 76.44C1159.12 76.9947 1159.52 77.8053 1159.27 78.872C1159.09 79.512 1158.8 79.9387 1158.37 80.152C1157.99 80.3653 1157.49 80.4507 1156.9 80.408C1156.34 80.3653 1155.7 80.3227 1154.98 80.28C1152.59 80.0667 1150.45 80.3227 1148.58 81.048C1146.74 81.7307 1145.27 82.7973 1144.16 84.248C1143.09 85.6987 1142.56 87.4267 1142.56 89.432H1139.75ZM1140.13 111C1139.36 111 1138.76 110.787 1138.34 110.36C1137.91 109.933 1137.7 109.336 1137.7 108.568V78.424C1137.7 77.656 1137.91 77.0587 1138.34 76.632C1138.76 76.2053 1139.36 75.992 1140.13 75.992C1140.9 75.992 1141.49 76.2053 1141.92 76.632C1142.35 77.0587 1142.56 77.656 1142.56 78.424V108.568C1142.56 109.336 1142.35 109.933 1141.92 110.36C1141.49 110.787 1140.9 111 1140.13 111ZM1156.18 121.368C1155.76 121.368 1155.42 121.24 1155.16 120.984C1154.95 120.771 1154.84 120.472 1154.84 120.088C1154.84 119.448 1155.03 118.851 1155.42 118.296C1155.8 117.784 1156.18 117.229 1156.57 116.632C1156.99 116.035 1157.21 115.309 1157.21 114.456C1157.21 113.688 1157.06 113.048 1156.76 112.536C1156.46 112.024 1156.1 111.555 1155.67 111.128C1155.29 110.744 1154.95 110.317 1154.65 109.848C1154.35 109.336 1154.2 108.717 1154.2 107.992C1154.2 106.925 1154.54 106.072 1155.22 105.432C1155.95 104.792 1156.85 104.472 1157.91 104.472C1159.19 104.472 1160.24 104.984 1161.05 106.008C1161.86 106.989 1162.26 108.376 1162.26 110.168C1162.26 111.363 1162.09 112.621 1161.75 113.944C1161.41 115.267 1160.94 116.483 1160.34 117.592C1159.75 118.744 1159.09 119.661 1158.36 120.344C1157.63 121.027 1156.91 121.368 1156.18 121.368ZM1203.64 111C1201.38 111 1199.36 110.467 1197.56 109.4C1195.81 108.333 1194.43 106.883 1193.4 105.048C1192.38 103.171 1191.87 101.037 1191.87 98.648V67.352C1191.87 66.6267 1192.08 66.0293 1192.51 65.56C1192.98 65.0907 1193.57 64.856 1194.3 64.856C1195.02 64.856 1195.62 65.0907 1196.09 65.56C1196.56 66.0293 1196.8 66.6267 1196.8 67.352V98.648C1196.8 100.824 1197.44 102.616 1198.72 104.024C1200 105.389 1201.64 106.072 1203.64 106.072H1205.37C1206.05 106.072 1206.61 106.307 1207.04 106.776C1207.46 107.245 1207.68 107.843 1207.68 108.568C1207.68 109.293 1207.42 109.891 1206.91 110.36C1206.4 110.787 1205.76 111 1204.99 111H1203.64ZM1187.71 81.56C1187.07 81.56 1186.53 81.368 1186.11 80.984C1185.68 80.5573 1185.47 80.0453 1185.47 79.448C1185.47 78.808 1185.68 78.296 1186.11 77.912C1186.53 77.4853 1187.07 77.272 1187.71 77.272H1204.03C1204.67 77.272 1205.2 77.4853 1205.63 77.912C1206.05 78.296 1206.27 78.808 1206.27 79.448C1206.27 80.0453 1206.05 80.5573 1205.63 80.984C1205.2 81.368 1204.67 81.56 1204.03 81.56H1187.71ZM1218.19 96.728C1217.43 96.728 1216.81 96.4933 1216.34 96.024C1215.91 95.5547 1215.7 94.9573 1215.7 94.232V63.512C1215.7 62.744 1215.91 62.1467 1216.34 61.72C1216.81 61.2507 1217.43 61.016 1218.19 61.016C1218.92 61.016 1219.49 61.2507 1219.92 61.72C1220.39 62.1467 1220.63 62.744 1220.63 63.512V94.232C1220.63 94.9573 1220.39 95.5547 1219.92 96.024C1219.49 96.4933 1218.92 96.728 1218.19 96.728ZM1245.71 111C1244.99 111 1244.39 110.765 1243.92 110.296C1243.45 109.827 1243.22 109.251 1243.22 108.568V91.928C1243.22 89.2827 1242.71 87.1067 1241.68 85.4C1240.7 83.6933 1239.33 82.4133 1237.59 81.56C1235.88 80.7067 1233.94 80.28 1231.76 80.28C1229.67 80.28 1227.77 80.6853 1226.07 81.496C1224.4 82.3067 1223.08 83.416 1222.1 84.824C1221.12 86.232 1220.63 87.832 1220.63 89.624H1217.11C1217.19 86.936 1217.92 84.5467 1219.28 82.456C1220.65 80.3227 1222.46 78.6587 1224.72 77.464C1226.98 76.2267 1229.5 75.608 1232.27 75.608C1235.3 75.608 1238.01 76.248 1240.4 77.528C1242.79 78.7653 1244.67 80.6 1246.03 83.032C1247.44 85.464 1248.15 88.4293 1248.15 91.928V108.568C1248.15 109.251 1247.91 109.827 1247.44 110.296C1246.97 110.765 1246.4 111 1245.71 111ZM1218.19 111C1217.43 111 1216.81 110.787 1216.34 110.36C1215.91 109.891 1215.7 109.293 1215.7 108.568V78.488C1215.7 77.72 1215.91 77.1227 1216.34 76.696C1216.81 76.2267 1217.43 75.992 1218.19 75.992C1218.92 75.992 1219.49 76.2267 1219.92 76.696C1220.39 77.1227 1220.63 77.72 1220.63 78.488V108.568C1220.63 109.293 1220.39 109.891 1219.92 110.36C1219.49 110.787 1218.92 111 1218.19 111ZM1274.88 111.32C1271.43 111.32 1268.35 110.573 1265.67 109.08C1263.02 107.544 1260.93 105.432 1259.39 102.744C1257.9 100.056 1257.15 96.984 1257.15 93.528C1257.15 90.0293 1257.86 86.9573 1259.27 84.312C1260.72 81.624 1262.7 79.512 1265.22 77.976C1267.74 76.44 1270.64 75.672 1273.92 75.672C1277.16 75.672 1279.98 76.4187 1282.37 77.912C1284.8 79.3627 1286.68 81.3893 1288 83.992C1289.32 86.5947 1289.99 89.56 1289.99 92.888C1289.99 93.5707 1289.77 94.1253 1289.35 94.552C1288.92 94.936 1288.36 95.128 1287.68 95.128H1260.48V91.032H1288.19L1285.44 93.016C1285.48 90.5413 1285.04 88.3227 1284.1 86.36C1283.16 84.3973 1281.82 82.8613 1280.07 81.752C1278.36 80.6427 1276.31 80.088 1273.92 80.088C1271.49 80.088 1269.36 80.664 1267.52 81.816C1265.69 82.968 1264.26 84.568 1263.23 86.616C1262.25 88.6213 1261.76 90.9253 1261.76 93.528C1261.76 96.1307 1262.32 98.4347 1263.43 100.44C1264.58 102.445 1266.14 104.024 1268.1 105.176C1270.06 106.328 1272.32 106.904 1274.88 106.904C1276.42 106.904 1277.95 106.648 1279.49 106.136C1281.07 105.581 1282.33 104.899 1283.27 104.088C1283.74 103.704 1284.27 103.512 1284.87 103.512C1285.46 103.469 1285.98 103.619 1286.4 103.96C1286.96 104.472 1287.23 105.027 1287.23 105.624C1287.28 106.221 1287.04 106.733 1286.53 107.16C1285.12 108.355 1283.33 109.357 1281.15 110.168C1278.98 110.936 1276.89 111.32 1274.88 111.32ZM1332.5 111.32C1329.21 111.32 1326.27 110.552 1323.66 109.016C1321.06 107.437 1318.99 105.304 1317.46 102.616C1315.96 99.928 1315.22 96.8987 1315.22 93.528C1315.22 90.1147 1315.98 87.064 1317.52 84.376C1319.1 81.688 1321.23 79.576 1323.92 78.04C1326.61 76.4613 1329.64 75.672 1333.01 75.672C1336.38 75.672 1339.39 76.4613 1342.03 78.04C1344.72 79.576 1346.83 81.688 1348.37 84.376C1349.95 87.064 1350.76 90.1147 1350.8 93.528L1348.82 95.064C1348.82 98.136 1348.09 100.909 1346.64 103.384C1345.23 105.816 1343.29 107.757 1340.82 109.208C1338.38 110.616 1335.61 111.32 1332.5 111.32ZM1333.01 106.84C1335.48 106.84 1337.68 106.264 1339.6 105.112C1341.56 103.96 1343.1 102.381 1344.21 100.376C1345.36 98.328 1345.94 96.0453 1345.94 93.528C1345.94 90.968 1345.36 88.6853 1344.21 86.68C1343.1 84.6747 1341.56 83.096 1339.6 81.944C1337.68 80.7493 1335.48 80.152 1333.01 80.152C1330.58 80.152 1328.38 80.7493 1326.42 81.944C1324.45 83.096 1322.9 84.6747 1321.74 86.68C1320.59 88.6853 1320.02 90.968 1320.02 93.528C1320.02 96.0453 1320.59 98.328 1321.74 100.376C1322.9 102.381 1324.45 103.96 1326.42 105.112C1328.38 106.264 1330.58 106.84 1333.01 106.84ZM1348.3 111C1347.58 111 1346.98 110.787 1346.51 110.36C1346.04 109.891 1345.81 109.293 1345.81 108.568V97.624L1347.02 92.568L1350.8 93.528V108.568C1350.8 109.293 1350.57 109.891 1350.1 110.36C1349.63 110.787 1349.03 111 1348.3 111ZM1362.88 125.976C1362.11 125.976 1361.49 125.741 1361.03 125.272C1360.6 124.845 1360.39 124.248 1360.39 123.48V93.272C1360.43 89.944 1361.22 86.9573 1362.75 84.312C1364.33 81.624 1366.44 79.512 1369.09 77.976C1371.78 76.44 1374.79 75.672 1378.11 75.672C1381.53 75.672 1384.58 76.4613 1387.27 78.04C1389.95 79.576 1392.07 81.688 1393.6 84.376C1395.18 87.064 1395.97 90.1147 1395.97 93.528C1395.97 96.8987 1395.2 99.928 1393.67 102.616C1392.17 105.304 1390.12 107.437 1387.52 109.016C1384.92 110.552 1381.97 111.32 1378.69 111.32C1375.83 111.32 1373.23 110.723 1370.88 109.528C1368.58 108.291 1366.72 106.669 1365.31 104.664V123.48C1365.31 124.248 1365.08 124.845 1364.61 125.272C1364.18 125.741 1363.61 125.976 1362.88 125.976ZM1378.11 106.84C1380.59 106.84 1382.81 106.264 1384.77 105.112C1386.73 103.96 1388.27 102.381 1389.38 100.376C1390.53 98.328 1391.11 96.0453 1391.11 93.528C1391.11 90.968 1390.53 88.6853 1389.38 86.68C1388.27 84.6747 1386.73 83.096 1384.77 81.944C1382.81 80.7493 1380.59 80.152 1378.11 80.152C1375.68 80.152 1373.48 80.7493 1371.52 81.944C1369.56 83.096 1368.02 84.6747 1366.91 86.68C1365.8 88.6853 1365.25 90.968 1365.25 93.528C1365.25 96.0453 1365.8 98.328 1366.91 100.376C1368.02 102.381 1369.56 103.96 1371.52 105.112C1373.48 106.264 1375.68 106.84 1378.11 106.84ZM1408.13 125.976C1407.36 125.976 1406.74 125.741 1406.28 125.272C1405.85 124.845 1405.64 124.248 1405.64 123.48V93.272C1405.68 89.944 1406.47 86.9573 1408 84.312C1409.58 81.624 1411.69 79.512 1414.34 77.976C1417.03 76.44 1420.04 75.672 1423.36 75.672C1426.78 75.672 1429.83 76.4613 1432.52 78.04C1435.2 79.576 1437.32 81.688 1438.85 84.376C1440.43 87.064 1441.22 90.1147 1441.22 93.528C1441.22 96.8987 1440.45 99.928 1438.92 102.616C1437.42 105.304 1435.37 107.437 1432.77 109.016C1430.17 110.552 1427.22 111.32 1423.94 111.32C1421.08 111.32 1418.48 110.723 1416.13 109.528C1413.83 108.291 1411.97 106.669 1410.56 104.664V123.48C1410.56 124.248 1410.33 124.845 1409.86 125.272C1409.43 125.741 1408.86 125.976 1408.13 125.976ZM1423.36 106.84C1425.84 106.84 1428.06 106.264 1430.02 105.112C1431.98 103.96 1433.52 102.381 1434.63 100.376C1435.78 98.328 1436.36 96.0453 1436.36 93.528C1436.36 90.968 1435.78 88.6853 1434.63 86.68C1433.52 84.6747 1431.98 83.096 1430.02 81.944C1428.06 80.7493 1425.84 80.152 1423.36 80.152C1420.93 80.152 1418.73 80.7493 1416.77 81.944C1414.81 83.096 1413.27 84.6747 1412.16 86.68C1411.05 88.6853 1410.5 90.968 1410.5 93.528C1410.5 96.0453 1411.05 98.328 1412.16 100.376C1413.27 102.381 1414.81 103.96 1416.77 105.112C1418.73 106.264 1420.93 106.84 1423.36 106.84ZM1483.33 111C1481.07 111 1479.04 110.467 1477.25 109.4C1475.5 108.333 1474.12 106.883 1473.09 105.048C1472.07 103.171 1471.56 101.037 1471.56 98.648V67.352C1471.56 66.6267 1471.77 66.0293 1472.2 65.56C1472.66 65.0907 1473.26 64.856 1473.99 64.856C1474.71 64.856 1475.31 65.0907 1475.78 65.56C1476.25 66.0293 1476.48 66.6267 1476.48 67.352V98.648C1476.48 100.824 1477.12 102.616 1478.4 104.024C1479.68 105.389 1481.33 106.072 1483.33 106.072H1485.06C1485.74 106.072 1486.3 106.307 1486.72 106.776C1487.15 107.245 1487.36 107.843 1487.36 108.568C1487.36 109.293 1487.11 109.891 1486.6 110.36C1486.08 110.787 1485.44 111 1484.68 111H1483.33ZM1467.4 81.56C1466.76 81.56 1466.22 81.368 1465.8 80.984C1465.37 80.5573 1465.16 80.0453 1465.16 79.448C1465.16 78.808 1465.37 78.296 1465.8 77.912C1466.22 77.4853 1466.76 77.272 1467.4 77.272H1483.72C1484.36 77.272 1484.89 77.4853 1485.32 77.912C1485.74 78.296 1485.96 78.808 1485.96 79.448C1485.96 80.0453 1485.74 80.5573 1485.32 80.984C1484.89 81.368 1484.36 81.56 1483.72 81.56H1467.4ZM1497.88 96.728C1497.11 96.728 1496.49 96.4933 1496.03 96.024C1495.6 95.5547 1495.39 94.9573 1495.39 94.232V63.512C1495.39 62.744 1495.6 62.1467 1496.03 61.72C1496.49 61.2507 1497.11 61.016 1497.88 61.016C1498.61 61.016 1499.18 61.2507 1499.61 61.72C1500.08 62.1467 1500.31 62.744 1500.31 63.512V94.232C1500.31 94.9573 1500.08 95.5547 1499.61 96.024C1499.18 96.4933 1498.61 96.728 1497.88 96.728ZM1525.4 111C1524.68 111 1524.08 110.765 1523.61 110.296C1523.14 109.827 1522.91 109.251 1522.91 108.568V91.928C1522.91 89.2827 1522.39 87.1067 1521.37 85.4C1520.39 83.6933 1519.02 82.4133 1517.27 81.56C1515.57 80.7067 1513.63 80.28 1511.45 80.28C1509.36 80.28 1507.46 80.6853 1505.75 81.496C1504.09 82.3067 1502.77 83.416 1501.79 84.824C1500.8 86.232 1500.31 87.832 1500.31 89.624H1496.79C1496.88 86.936 1497.6 84.5467 1498.97 82.456C1500.33 80.3227 1502.15 78.6587 1504.41 77.464C1506.67 76.2267 1509.19 75.608 1511.96 75.608C1514.99 75.608 1517.7 76.248 1520.09 77.528C1522.48 78.7653 1524.36 80.6 1525.72 83.032C1527.13 85.464 1527.83 88.4293 1527.83 91.928V108.568C1527.83 109.251 1527.6 109.827 1527.13 110.296C1526.66 110.765 1526.08 111 1525.4 111ZM1497.88 111C1497.11 111 1496.49 110.787 1496.03 110.36C1495.6 109.891 1495.39 109.293 1495.39 108.568V78.488C1495.39 77.72 1495.6 77.1227 1496.03 76.696C1496.49 76.2267 1497.11 75.992 1497.88 75.992C1498.61 75.992 1499.18 76.2267 1499.61 76.696C1500.08 77.1227 1500.31 77.72 1500.31 78.488V108.568C1500.31 109.293 1500.08 109.891 1499.61 110.36C1499.18 110.787 1498.61 111 1497.88 111ZM1554.12 111.32C1550.84 111.32 1547.89 110.552 1545.29 109.016C1542.69 107.437 1540.62 105.304 1539.08 102.616C1537.59 99.928 1536.84 96.8987 1536.84 93.528C1536.84 90.1147 1537.61 87.064 1539.15 84.376C1540.72 81.688 1542.86 79.576 1545.55 78.04C1548.23 76.4613 1551.26 75.672 1554.63 75.672C1558 75.672 1561.01 76.4613 1563.66 78.04C1566.35 79.576 1568.46 81.688 1569.99 84.376C1571.57 87.064 1572.38 90.1147 1572.43 93.528L1570.44 95.064C1570.44 98.136 1569.72 100.909 1568.27 103.384C1566.86 105.816 1564.92 107.757 1562.44 109.208C1560.01 110.616 1557.24 111.32 1554.12 111.32ZM1554.63 106.84C1557.11 106.84 1559.31 106.264 1561.23 105.112C1563.19 103.96 1564.72 102.381 1565.83 100.376C1566.99 98.328 1567.56 96.0453 1567.56 93.528C1567.56 90.968 1566.99 88.6853 1565.83 86.68C1564.72 84.6747 1563.19 83.096 1561.23 81.944C1559.31 80.7493 1557.11 80.152 1554.63 80.152C1552.2 80.152 1550 80.7493 1548.04 81.944C1546.08 83.096 1544.52 84.6747 1543.37 86.68C1542.22 88.6853 1541.64 90.968 1541.64 93.528C1541.64 96.0453 1542.22 98.328 1543.37 100.376C1544.52 102.381 1546.08 103.96 1548.04 105.112C1550 106.264 1552.2 106.84 1554.63 106.84ZM1569.93 111C1569.2 111 1568.61 110.787 1568.14 110.36C1567.67 109.891 1567.43 109.293 1567.43 108.568V97.624L1568.65 92.568L1572.43 93.528V108.568C1572.43 109.293 1572.19 109.891 1571.72 110.36C1571.25 110.787 1570.65 111 1569.93 111ZM1595.71 111C1593.44 111 1591.42 110.467 1589.63 109.4C1587.88 108.333 1586.49 106.883 1585.47 105.048C1584.44 103.171 1583.93 101.037 1583.93 98.648V67.352C1583.93 66.6267 1584.14 66.0293 1584.57 65.56C1585.04 65.0907 1585.64 64.856 1586.36 64.856C1587.09 64.856 1587.68 65.0907 1588.15 65.56C1588.62 66.0293 1588.86 66.6267 1588.86 67.352V98.648C1588.86 100.824 1589.5 102.616 1590.78 104.024C1592.06 105.389 1593.7 106.072 1595.71 106.072H1597.43C1598.12 106.072 1598.67 106.307 1599.1 106.776C1599.52 107.245 1599.74 107.843 1599.74 108.568C1599.74 109.293 1599.48 109.891 1598.97 110.36C1598.46 110.787 1597.82 111 1597.05 111H1595.71ZM1579.77 81.56C1579.13 81.56 1578.6 81.368 1578.17 80.984C1577.74 80.5573 1577.53 80.0453 1577.53 79.448C1577.53 78.808 1577.74 78.296 1578.17 77.912C1578.6 77.4853 1579.13 77.272 1579.77 77.272H1596.09C1596.73 77.272 1597.26 77.4853 1597.69 77.912C1598.12 78.296 1598.33 78.808 1598.33 79.448C1598.33 80.0453 1598.12 80.5573 1597.69 80.984C1597.26 81.368 1596.73 81.56 1596.09 81.56H1579.77ZM436.269 201C434.007 201 431.981 200.467 430.189 199.4C428.439 198.333 427.053 196.883 426.029 195.048C425.005 193.171 424.493 191.037 424.493 188.648V157.352C424.493 156.627 424.706 156.029 425.133 155.56C425.602 155.091 426.199 154.856 426.925 154.856C427.65 154.856 428.247 155.091 428.717 155.56C429.186 156.029 429.421 156.627 429.421 157.352V188.648C429.421 190.824 430.061 192.616 431.341 194.024C432.621 195.389 434.263 196.072 436.269 196.072H437.997C438.679 196.072 439.234 196.307 439.661 196.776C440.087 197.245 440.301 197.843 440.301 198.568C440.301 199.293 440.045 199.891 439.533 200.36C439.021 200.787 438.381 201 437.613 201H436.269ZM420.333 171.56C419.693 171.56 419.159 171.368 418.733 170.984C418.306 170.557 418.093 170.045 418.093 169.448C418.093 168.808 418.306 168.296 418.733 167.912C419.159 167.485 419.693 167.272 420.333 167.272H436.653C437.293 167.272 437.826 167.485 438.253 167.912C438.679 168.296 438.893 168.808 438.893 169.448C438.893 170.045 438.679 170.557 438.253 170.984C437.826 171.368 437.293 171.56 436.653 171.56H420.333ZM463.747 201.32C460.461 201.32 457.517 200.552 454.915 199.016C452.312 197.437 450.242 195.304 448.707 192.616C447.213 189.928 446.467 186.899 446.467 183.528C446.467 180.115 447.235 177.064 448.771 174.376C450.349 171.688 452.483 169.576 455.171 168.04C457.859 166.461 460.888 165.672 464.259 165.672C467.629 165.672 470.637 166.461 473.283 168.04C475.971 169.576 478.083 171.688 479.619 174.376C481.197 177.064 482.008 180.115 482.051 183.528L480.067 185.064C480.067 188.136 479.341 190.909 477.891 193.384C476.483 195.816 474.541 197.757 472.067 199.208C469.635 200.616 466.861 201.32 463.747 201.32ZM464.259 196.84C466.733 196.84 468.931 196.264 470.851 195.112C472.813 193.96 474.349 192.381 475.458 190.376C476.611 188.328 477.187 186.045 477.187 183.528C477.187 180.968 476.611 178.685 475.458 176.68C474.349 174.675 472.813 173.096 470.851 171.944C468.931 170.749 466.733 170.152 464.259 170.152C461.827 170.152 459.629 170.749 457.667 171.944C455.704 173.096 454.147 174.675 452.995 176.68C451.843 178.685 451.267 180.968 451.267 183.528C451.267 186.045 451.843 188.328 452.995 190.376C454.147 192.381 455.704 193.96 457.667 195.112C459.629 196.264 461.827 196.84 464.259 196.84ZM479.555 201C478.829 201 478.232 200.787 477.763 200.36C477.293 199.891 477.059 199.293 477.059 198.568V187.624L478.275 182.568L482.051 183.528V198.568C482.051 199.293 481.816 199.891 481.347 200.36C480.877 200.787 480.28 201 479.555 201ZM495.667 189.288L492.659 186.024L514.547 166.248C515.059 165.779 515.592 165.565 516.147 165.608C516.702 165.608 517.214 165.864 517.683 166.376C518.152 166.888 518.366 167.443 518.323 168.04C518.323 168.595 518.067 169.085 517.555 169.512L495.667 189.288ZM494.067 201C493.342 201 492.744 200.787 492.275 200.36C491.848 199.891 491.635 199.293 491.635 198.568V153.448C491.635 152.723 491.848 152.147 492.275 151.72C492.744 151.251 493.342 151.016 494.067 151.016C494.792 151.016 495.368 151.251 495.795 151.72C496.264 152.147 496.499 152.723 496.499 153.448V198.568C496.499 199.293 496.264 199.891 495.795 200.36C495.368 200.787 494.792 201 494.067 201ZM517.747 200.68C517.192 201.149 516.616 201.341 516.019 201.256C515.422 201.213 514.91 200.915 514.483 200.36L500.211 182.824L503.667 179.752L518.067 197.48C518.494 197.992 518.686 198.547 518.643 199.144C518.6 199.699 518.302 200.211 517.747 200.68ZM540.945 201.32C537.489 201.32 534.417 200.573 531.729 199.08C529.083 197.544 526.992 195.432 525.457 192.744C523.963 190.056 523.217 186.984 523.217 183.528C523.217 180.029 523.921 176.957 525.329 174.312C526.779 171.624 528.763 169.512 531.281 167.976C533.798 166.44 536.699 165.672 539.985 165.672C543.227 165.672 546.043 166.419 548.433 167.912C550.865 169.363 552.742 171.389 554.065 173.992C555.387 176.595 556.049 179.56 556.049 182.888C556.049 183.571 555.835 184.125 555.409 184.552C554.982 184.936 554.427 185.128 553.745 185.128H526.545V181.032H554.257L551.505 183.016C551.547 180.541 551.099 178.323 550.161 176.36C549.222 174.397 547.878 172.861 546.129 171.752C544.422 170.643 542.374 170.088 539.985 170.088C537.553 170.088 535.419 170.664 533.585 171.816C531.75 172.968 530.321 174.568 529.297 176.616C528.315 178.621 527.825 180.925 527.825 183.528C527.825 186.131 528.379 188.435 529.489 190.44C530.641 192.445 532.198 194.024 534.161 195.176C536.123 196.328 538.385 196.904 540.945 196.904C542.481 196.904 544.017 196.648 545.553 196.136C547.131 195.581 548.39 194.899 549.329 194.088C549.798 193.704 550.331 193.512 550.929 193.512C551.526 193.469 552.038 193.619 552.465 193.96C553.019 194.472 553.297 195.027 553.297 195.624C553.339 196.221 553.105 196.733 552.593 197.16C551.185 198.355 549.393 199.357 547.217 200.168C545.041 200.936 542.95 201.32 540.945 201.32ZM576.609 201.32C574.092 201.32 571.596 200.893 569.121 200.04C566.646 199.187 564.641 197.907 563.105 196.2C562.636 195.688 562.444 195.112 562.529 194.472C562.614 193.832 562.934 193.277 563.489 192.808C564.086 192.381 564.705 192.211 565.345 192.296C565.985 192.381 566.518 192.659 566.945 193.128C567.969 194.323 569.313 195.24 570.977 195.88C572.684 196.52 574.561 196.84 576.609 196.84C579.766 196.84 582.049 196.307 583.457 195.24C584.865 194.131 585.59 192.808 585.633 191.272C585.633 189.736 584.908 188.477 583.457 187.496C582.006 186.472 579.617 185.683 576.289 185.128C571.98 184.445 568.822 183.251 566.817 181.544C564.812 179.837 563.809 177.811 563.809 175.464C563.809 173.288 564.385 171.475 565.537 170.024C566.689 168.573 568.225 167.485 570.145 166.76C572.065 166.035 574.177 165.672 576.481 165.672C579.34 165.672 581.793 166.163 583.841 167.144C585.932 168.125 587.617 169.448 588.897 171.112C589.324 171.667 589.494 172.243 589.409 172.84C589.324 173.437 588.982 173.928 588.385 174.312C587.873 174.611 587.276 174.717 586.593 174.632C585.953 174.504 585.398 174.184 584.929 173.672C583.862 172.435 582.625 171.539 581.217 170.984C579.809 170.387 578.188 170.088 576.353 170.088C574.006 170.088 572.129 170.579 570.721 171.56C569.313 172.499 568.609 173.693 568.609 175.144C568.609 176.125 568.865 176.979 569.377 177.704C569.932 178.429 570.849 179.069 572.129 179.624C573.452 180.179 575.286 180.648 577.633 181.032C580.833 181.544 583.35 182.312 585.185 183.336C587.062 184.317 588.385 185.491 589.153 186.856C589.964 188.179 590.369 189.629 590.369 191.208C590.369 193.213 589.772 194.984 588.577 196.52C587.425 198.013 585.804 199.187 583.713 200.04C581.665 200.893 579.297 201.32 576.609 201.32ZM631.331 201C629.07 201 627.043 200.467 625.251 199.4C623.502 198.333 622.115 196.883 621.091 195.048C620.067 193.171 619.555 191.037 619.555 188.648V157.352C619.555 156.627 619.768 156.029 620.195 155.56C620.664 155.091 621.262 154.856 621.987 154.856C622.712 154.856 623.31 155.091 623.779 155.56C624.248 156.029 624.483 156.627 624.483 157.352V188.648C624.483 190.824 625.123 192.616 626.403 194.024C627.683 195.389 629.326 196.072 631.331 196.072H633.059C633.742 196.072 634.296 196.307 634.723 196.776C635.15 197.245 635.363 197.843 635.363 198.568C635.363 199.293 635.107 199.891 634.595 200.36C634.083 200.787 633.443 201 632.675 201H631.331ZM615.395 171.56C614.755 171.56 614.222 171.368 613.795 170.984C613.368 170.557 613.155 170.045 613.155 169.448C613.155 168.808 613.368 168.296 613.795 167.912C614.222 167.485 614.755 167.272 615.395 167.272H631.715C632.355 167.272 632.888 167.485 633.315 167.912C633.742 168.296 633.955 168.808 633.955 169.448C633.955 170.045 633.742 170.557 633.315 170.984C632.888 171.368 632.355 171.56 631.715 171.56H615.395ZM645.881 186.728C645.113 186.728 644.494 186.493 644.025 186.024C643.598 185.555 643.385 184.957 643.385 184.232V153.512C643.385 152.744 643.598 152.147 644.025 151.72C644.494 151.251 645.113 151.016 645.881 151.016C646.606 151.016 647.182 151.251 647.609 151.72C648.078 152.147 648.313 152.744 648.313 153.512V184.232C648.313 184.957 648.078 185.555 647.609 186.024C647.182 186.493 646.606 186.728 645.881 186.728ZM673.401 201C672.676 201 672.078 200.765 671.609 200.296C671.14 199.827 670.905 199.251 670.905 198.568V181.928C670.905 179.283 670.393 177.107 669.369 175.4C668.388 173.693 667.022 172.413 665.273 171.56C663.566 170.707 661.625 170.28 659.449 170.28C657.358 170.28 655.46 170.685 653.753 171.496C652.089 172.307 650.766 173.416 649.785 174.824C648.804 176.232 648.313 177.832 648.313 179.624H644.793C644.878 176.936 645.604 174.547 646.969 172.456C648.334 170.323 650.148 168.659 652.409 167.464C654.67 166.227 657.188 165.608 659.961 165.608C662.99 165.608 665.7 166.248 668.089 167.528C670.478 168.765 672.356 170.6 673.721 173.032C675.129 175.464 675.833 178.429 675.833 181.928V198.568C675.833 199.251 675.598 199.827 675.129 200.296C674.66 200.765 674.084 201 673.401 201ZM645.881 201C645.113 201 644.494 200.787 644.025 200.36C643.598 199.891 643.385 199.293 643.385 198.568V168.488C643.385 167.72 643.598 167.123 644.025 166.696C644.494 166.227 645.113 165.992 645.881 165.992C646.606 165.992 647.182 166.227 647.609 166.696C648.078 167.123 648.313 167.72 648.313 168.488V198.568C648.313 199.293 648.078 199.891 647.609 200.36C647.182 200.787 646.606 201 645.881 201ZM702.57 201.32C699.114 201.32 696.042 200.573 693.354 199.08C690.708 197.544 688.617 195.432 687.082 192.744C685.588 190.056 684.842 186.984 684.842 183.528C684.842 180.029 685.546 176.957 686.954 174.312C688.404 171.624 690.388 169.512 692.906 167.976C695.423 166.44 698.324 165.672 701.61 165.672C704.852 165.672 707.668 166.419 710.058 167.912C712.49 169.363 714.367 171.389 715.69 173.992C717.012 176.595 717.674 179.56 717.674 182.888C717.674 183.571 717.46 184.125 717.034 184.552C716.607 184.936 716.052 185.128 715.37 185.128H688.17V181.032H715.882L713.13 183.016C713.172 180.541 712.724 178.323 711.786 176.36C710.847 174.397 709.503 172.861 707.754 171.752C706.047 170.643 703.999 170.088 701.61 170.088C699.178 170.088 697.044 170.664 695.21 171.816C693.375 172.968 691.946 174.568 690.922 176.616C689.94 178.621 689.45 180.925 689.45 183.528C689.45 186.131 690.004 188.435 691.114 190.44C692.266 192.445 693.823 194.024 695.786 195.176C697.748 196.328 700.01 196.904 702.57 196.904C704.106 196.904 705.642 196.648 707.178 196.136C708.756 195.581 710.015 194.899 710.954 194.088C711.423 193.704 711.956 193.512 712.554 193.512C713.151 193.469 713.663 193.619 714.09 193.96C714.644 194.472 714.922 195.027 714.922 195.624C714.964 196.221 714.73 196.733 714.218 197.16C712.81 198.355 711.018 199.357 708.842 200.168C706.666 200.936 704.575 201.32 702.57 201.32ZM756.984 201.32C754.467 201.32 751.971 200.893 749.496 200.04C747.021 199.187 745.016 197.907 743.48 196.2C743.011 195.688 742.819 195.112 742.904 194.472C742.989 193.832 743.309 193.277 743.864 192.808C744.461 192.381 745.08 192.211 745.72 192.296C746.36 192.381 746.893 192.659 747.32 193.128C748.344 194.323 749.688 195.24 751.352 195.88C753.059 196.52 754.936 196.84 756.984 196.84C760.141 196.84 762.424 196.307 763.832 195.24C765.24 194.131 765.965 192.808 766.008 191.272C766.008 189.736 765.283 188.477 763.832 187.496C762.381 186.472 759.992 185.683 756.664 185.128C752.355 184.445 749.197 183.251 747.192 181.544C745.187 179.837 744.184 177.811 744.184 175.464C744.184 173.288 744.76 171.475 745.912 170.024C747.064 168.573 748.6 167.485 750.52 166.76C752.44 166.035 754.552 165.672 756.856 165.672C759.715 165.672 762.168 166.163 764.216 167.144C766.307 168.125 767.992 169.448 769.272 171.112C769.699 171.667 769.869 172.243 769.784 172.84C769.699 173.437 769.357 173.928 768.76 174.312C768.248 174.611 767.651 174.717 766.968 174.632C766.328 174.504 765.773 174.184 765.304 173.672C764.237 172.435 763 171.539 761.592 170.984C760.184 170.387 758.563 170.088 756.728 170.088C754.381 170.088 752.504 170.579 751.096 171.56C749.688 172.499 748.984 173.693 748.984 175.144C748.984 176.125 749.24 176.979 749.752 177.704C750.307 178.429 751.224 179.069 752.504 179.624C753.827 180.179 755.661 180.648 758.008 181.032C761.208 181.544 763.725 182.312 765.56 183.336C767.437 184.317 768.76 185.491 769.528 186.856C770.339 188.179 770.744 189.629 770.744 191.208C770.744 193.213 770.147 194.984 768.952 196.52C767.8 198.013 766.179 199.187 764.088 200.04C762.04 200.893 759.672 201.32 756.984 201.32ZM792.956 201C790.695 201 788.668 200.467 786.876 199.4C785.127 198.333 783.74 196.883 782.716 195.048C781.692 193.171 781.18 191.037 781.18 188.648V157.352C781.18 156.627 781.393 156.029 781.82 155.56C782.289 155.091 782.887 154.856 783.612 154.856C784.337 154.856 784.935 155.091 785.404 155.56C785.873 156.029 786.108 156.627 786.108 157.352V188.648C786.108 190.824 786.748 192.616 788.028 194.024C789.308 195.389 790.951 196.072 792.956 196.072H794.684C795.367 196.072 795.921 196.307 796.348 196.776C796.775 197.245 796.988 197.843 796.988 198.568C796.988 199.293 796.732 199.891 796.22 200.36C795.708 200.787 795.068 201 794.3 201H792.956ZM777.02 171.56C776.38 171.56 775.847 171.368 775.42 170.984C774.993 170.557 774.78 170.045 774.78 169.448C774.78 168.808 774.993 168.296 775.42 167.912C775.847 167.485 776.38 167.272 777.02 167.272H793.34C793.98 167.272 794.513 167.485 794.94 167.912C795.367 168.296 795.58 168.808 795.58 169.448C795.58 170.045 795.367 170.557 794.94 170.984C794.513 171.368 793.98 171.56 793.34 171.56H777.02ZM807.058 179.432C807.186 176.787 807.869 174.419 809.106 172.328C810.386 170.237 812.029 168.595 814.034 167.4C816.082 166.205 818.343 165.608 820.818 165.608C822.781 165.608 824.295 165.885 825.362 166.44C826.429 166.995 826.834 167.805 826.578 168.872C826.407 169.512 826.109 169.939 825.682 170.152C825.298 170.365 824.807 170.451 824.21 170.408C823.655 170.365 823.015 170.323 822.29 170.28C819.901 170.067 817.767 170.323 815.89 171.048C814.055 171.731 812.583 172.797 811.474 174.248C810.407 175.699 809.874 177.427 809.874 179.432H807.058ZM807.442 201C806.674 201 806.077 200.787 805.65 200.36C805.223 199.933 805.01 199.336 805.01 198.568V168.424C805.01 167.656 805.223 167.059 805.65 166.632C806.077 166.205 806.674 165.992 807.442 165.992C808.21 165.992 808.807 166.205 809.234 166.632C809.661 167.059 809.874 167.656 809.874 168.424V198.568C809.874 199.336 809.661 199.933 809.234 200.36C808.807 200.787 808.21 201 807.442 201ZM847.632 201.32C844.176 201.32 841.104 200.573 838.416 199.08C835.771 197.544 833.68 195.432 832.144 192.744C830.651 190.056 829.904 186.984 829.904 183.528C829.904 180.029 830.608 176.957 832.016 174.312C833.467 171.624 835.451 169.512 837.968 167.976C840.485 166.44 843.387 165.672 846.672 165.672C849.915 165.672 852.731 166.419 855.12 167.912C857.552 169.363 859.429 171.389 860.752 173.992C862.075 176.595 862.736 179.56 862.736 182.888C862.736 183.571 862.523 184.125 862.096 184.552C861.669 184.936 861.115 185.128 860.432 185.128H833.232V181.032H860.944L858.192 183.016C858.235 180.541 857.787 178.323 856.848 176.36C855.909 174.397 854.565 172.861 852.816 171.752C851.109 170.643 849.061 170.088 846.672 170.088C844.24 170.088 842.107 170.664 840.272 171.816C838.437 172.968 837.008 174.568 835.984 176.616C835.003 178.621 834.512 180.925 834.512 183.528C834.512 186.131 835.067 188.435 836.176 190.44C837.328 192.445 838.885 194.024 840.848 195.176C842.811 196.328 845.072 196.904 847.632 196.904C849.168 196.904 850.704 196.648 852.24 196.136C853.819 195.581 855.077 194.899 856.016 194.088C856.485 193.704 857.019 193.512 857.616 193.512C858.213 193.469 858.725 193.619 859.152 193.96C859.707 194.472 859.984 195.027 859.984 195.624C860.027 196.221 859.792 196.733 859.28 197.16C857.872 198.355 856.08 199.357 853.904 200.168C851.728 200.936 849.637 201.32 847.632 201.32ZM883.297 201.32C880.779 201.32 878.283 200.893 875.809 200.04C873.334 199.187 871.329 197.907 869.793 196.2C869.323 195.688 869.131 195.112 869.217 194.472C869.302 193.832 869.622 193.277 870.177 192.808C870.774 192.381 871.393 192.211 872.033 192.296C872.673 192.381 873.206 192.659 873.633 193.128C874.657 194.323 876.001 195.24 877.665 195.88C879.371 196.52 881.249 196.84 883.297 196.84C886.454 196.84 888.737 196.307 890.145 195.24C891.553 194.131 892.278 192.808 892.321 191.272C892.321 189.736 891.595 188.477 890.145 187.496C888.694 186.472 886.305 185.683 882.977 185.128C878.667 184.445 875.51 183.251 873.505 181.544C871.499 179.837 870.497 177.811 870.497 175.464C870.497 173.288 871.073 171.475 872.225 170.024C873.377 168.573 874.913 167.485 876.833 166.76C878.753 166.035 880.865 165.672 883.169 165.672C886.027 165.672 888.481 166.163 890.529 167.144C892.619 168.125 894.305 169.448 895.585 171.112C896.011 171.667 896.182 172.243 896.097 172.84C896.011 173.437 895.67 173.928 895.073 174.312C894.561 174.611 893.963 174.717 893.281 174.632C892.641 174.504 892.086 174.184 891.617 173.672C890.55 172.435 889.313 171.539 887.905 170.984C886.497 170.387 884.875 170.088 883.041 170.088C880.694 170.088 878.817 170.579 877.409 171.56C876.001 172.499 875.297 173.693 875.297 175.144C875.297 176.125 875.553 176.979 876.065 177.704C876.619 178.429 877.537 179.069 878.817 179.624C880.139 180.179 881.974 180.648 884.321 181.032C887.521 181.544 890.038 182.312 891.873 183.336C893.75 184.317 895.073 185.491 895.841 186.856C896.651 188.179 897.057 189.629 897.057 191.208C897.057 193.213 896.459 194.984 895.265 196.52C894.113 198.013 892.491 199.187 890.401 200.04C888.353 200.893 885.985 201.32 883.297 201.32ZM917.797 201.32C915.279 201.32 912.783 200.893 910.309 200.04C907.834 199.187 905.829 197.907 904.293 196.2C903.823 195.688 903.631 195.112 903.717 194.472C903.802 193.832 904.122 193.277 904.677 192.808C905.274 192.381 905.893 192.211 906.533 192.296C907.173 192.381 907.706 192.659 908.133 193.128C909.157 194.323 910.501 195.24 912.165 195.88C913.871 196.52 915.749 196.84 917.797 196.84C920.954 196.84 923.237 196.307 924.645 195.24C926.053 194.131 926.778 192.808 926.821 191.272C926.821 189.736 926.095 188.477 924.645 187.496C923.194 186.472 920.805 185.683 917.477 185.128C913.167 184.445 910.01 183.251 908.005 181.544C905.999 179.837 904.997 177.811 904.997 175.464C904.997 173.288 905.573 171.475 906.725 170.024C907.877 168.573 909.413 167.485 911.333 166.76C913.253 166.035 915.365 165.672 917.669 165.672C920.527 165.672 922.981 166.163 925.029 167.144C927.119 168.125 928.805 169.448 930.085 171.112C930.511 171.667 930.682 172.243 930.597 172.84C930.511 173.437 930.17 173.928 929.573 174.312C929.061 174.611 928.463 174.717 927.781 174.632C927.141 174.504 926.586 174.184 926.117 173.672C925.05 172.435 923.813 171.539 922.405 170.984C920.997 170.387 919.375 170.088 917.541 170.088C915.194 170.088 913.317 170.579 911.909 171.56C910.501 172.499 909.797 173.693 909.797 175.144C909.797 176.125 910.053 176.979 910.565 177.704C911.119 178.429 912.037 179.069 913.317 179.624C914.639 180.179 916.474 180.648 918.821 181.032C922.021 181.544 924.538 182.312 926.373 183.336C928.25 184.317 929.573 185.491 930.341 186.856C931.151 188.179 931.557 189.629 931.557 191.208C931.557 193.213 930.959 194.984 929.765 196.52C928.613 198.013 926.991 199.187 924.901 200.04C922.853 200.893 920.485 201.32 917.797 201.32ZM974.759 201.32C971.345 201.32 968.295 200.552 965.607 199.016C962.919 197.48 960.807 195.368 959.271 192.68C957.735 189.992 956.967 186.941 956.967 183.528C956.967 180.072 957.735 177 959.271 174.312C960.807 171.624 962.919 169.512 965.607 167.976C968.295 166.44 971.345 165.672 974.759 165.672C978.172 165.672 981.201 166.44 983.847 167.976C986.535 169.512 988.647 171.624 990.183 174.312C991.719 177 992.508 180.072 992.551 183.528C992.551 186.941 991.761 189.992 990.183 192.68C988.647 195.368 986.535 197.48 983.847 199.016C981.201 200.552 978.172 201.32 974.759 201.32ZM974.759 196.84C977.233 196.84 979.452 196.264 981.415 195.112C983.377 193.96 984.913 192.381 986.023 190.376C987.132 188.371 987.687 186.088 987.687 183.528C987.687 180.968 987.132 178.685 986.023 176.68C984.913 174.632 983.377 173.032 981.415 171.88C979.452 170.728 977.233 170.152 974.759 170.152C972.284 170.152 970.065 170.728 968.103 171.88C966.14 173.032 964.583 174.632 963.431 176.68C962.321 178.685 961.767 180.968 961.767 183.528C961.767 186.088 962.321 188.371 963.431 190.376C964.583 192.381 966.14 193.96 968.103 195.112C970.065 196.264 972.284 196.84 974.759 196.84ZM1017.37 201.384C1014.34 201.384 1011.63 200.765 1009.24 199.528C1006.85 198.248 1004.95 196.392 1003.54 193.96C1002.18 191.528 1001.5 188.563 1001.5 185.064V168.424C1001.5 167.741 1001.73 167.165 1002.2 166.696C1002.67 166.227 1003.24 165.992 1003.93 165.992C1004.65 165.992 1005.25 166.227 1005.72 166.696C1006.19 167.165 1006.42 167.741 1006.42 168.424V185.064C1006.42 187.709 1006.91 189.885 1007.9 191.592C1008.92 193.299 1010.28 194.579 1011.99 195.432C1013.74 196.285 1015.7 196.712 1017.88 196.712C1019.97 196.712 1021.85 196.307 1023.51 195.496C1025.22 194.685 1026.56 193.576 1027.54 192.168C1028.52 190.76 1029.02 189.16 1029.02 187.368H1032.53C1032.41 190.056 1031.66 192.467 1030.3 194.6C1028.97 196.691 1027.18 198.355 1024.92 199.592C1022.66 200.787 1020.14 201.384 1017.37 201.384ZM1031.45 201C1030.72 201 1030.12 200.787 1029.66 200.36C1029.23 199.891 1029.02 199.272 1029.02 198.504V168.424C1029.02 167.699 1029.23 167.123 1029.66 166.696C1030.12 166.227 1030.72 165.992 1031.45 165.992C1032.17 165.992 1032.77 166.227 1033.24 166.696C1033.71 167.123 1033.94 167.699 1033.94 168.424V198.504C1033.94 199.272 1033.71 199.891 1033.24 200.36C1032.77 200.787 1032.17 201 1031.45 201ZM1059.14 201C1056.88 201 1054.86 200.467 1053.06 199.4C1051.31 198.333 1049.93 196.883 1048.9 195.048C1047.88 193.171 1047.37 191.037 1047.37 188.648V157.352C1047.37 156.627 1047.58 156.029 1048.01 155.56C1048.48 155.091 1049.07 154.856 1049.8 154.856C1050.52 154.856 1051.12 155.091 1051.59 155.56C1052.06 156.029 1052.3 156.627 1052.3 157.352V188.648C1052.3 190.824 1052.94 192.616 1054.22 194.024C1055.5 195.389 1057.14 196.072 1059.14 196.072H1060.87C1061.55 196.072 1062.11 196.307 1062.54 196.776C1062.96 197.245 1063.18 197.843 1063.18 198.568C1063.18 199.293 1062.92 199.891 1062.41 200.36C1061.9 200.787 1061.26 201 1060.49 201H1059.14ZM1043.21 171.56C1042.57 171.56 1042.03 171.368 1041.61 170.984C1041.18 170.557 1040.97 170.045 1040.97 169.448C1040.97 168.808 1041.18 168.296 1041.61 167.912C1042.03 167.485 1042.57 167.272 1043.21 167.272H1059.53C1060.17 167.272 1060.7 167.485 1061.13 167.912C1061.55 168.296 1061.77 168.808 1061.77 169.448C1061.77 170.045 1061.55 170.557 1061.13 170.984C1060.7 171.368 1060.17 171.56 1059.53 171.56H1043.21ZM1105.88 201.32C1102.47 201.32 1099.42 200.552 1096.73 199.016C1094.04 197.48 1091.93 195.368 1090.4 192.68C1088.86 189.992 1088.09 186.941 1088.09 183.528C1088.09 180.072 1088.86 177 1090.4 174.312C1091.93 171.624 1094.04 169.512 1096.73 167.976C1099.42 166.44 1102.47 165.672 1105.88 165.672C1109.3 165.672 1112.33 166.44 1114.97 167.976C1117.66 169.512 1119.77 171.624 1121.31 174.312C1122.84 177 1123.63 180.072 1123.68 183.528C1123.68 186.941 1122.89 189.992 1121.31 192.68C1119.77 195.368 1117.66 197.48 1114.97 199.016C1112.33 200.552 1109.3 201.32 1105.88 201.32ZM1105.88 196.84C1108.36 196.84 1110.58 196.264 1112.54 195.112C1114.5 193.96 1116.04 192.381 1117.15 190.376C1118.26 188.371 1118.81 186.088 1118.81 183.528C1118.81 180.968 1118.26 178.685 1117.15 176.68C1116.04 174.632 1114.5 173.032 1112.54 171.88C1110.58 170.728 1108.36 170.152 1105.88 170.152C1103.41 170.152 1101.19 170.728 1099.23 171.88C1097.26 173.032 1095.71 174.632 1094.56 176.68C1093.45 178.685 1092.89 180.968 1092.89 183.528C1092.89 186.088 1093.45 188.371 1094.56 190.376C1095.71 192.381 1097.26 193.96 1099.23 195.112C1101.19 196.264 1103.41 196.84 1105.88 196.84ZM1137.61 201C1136.97 201 1136.42 200.787 1135.95 200.36C1135.48 199.891 1135.24 199.272 1135.24 198.504V166.056C1135.24 163.069 1135.76 160.445 1136.78 158.184C1137.8 155.923 1139.32 154.173 1141.32 152.936C1143.33 151.656 1145.78 151.016 1148.68 151.016C1149.41 151.016 1150.01 151.229 1150.48 151.656C1150.95 152.083 1151.18 152.616 1151.18 153.256C1151.18 153.896 1150.95 154.429 1150.48 154.856C1150.01 155.283 1149.41 155.496 1148.68 155.496C1146.76 155.496 1145.16 155.944 1143.88 156.84C1142.65 157.693 1141.71 158.909 1141.07 160.488C1140.47 162.024 1140.17 163.795 1140.17 165.8V198.504C1140.17 199.272 1139.94 199.891 1139.47 200.36C1139.04 200.787 1138.42 201 1137.61 201ZM1131.15 171.56C1130.47 171.56 1129.91 171.368 1129.48 170.984C1129.1 170.557 1128.91 170.045 1128.91 169.448C1128.91 168.808 1129.1 168.296 1129.48 167.912C1129.91 167.485 1130.47 167.272 1131.15 167.272H1147.85C1148.53 167.272 1149.07 167.485 1149.45 167.912C1149.88 168.296 1150.09 168.808 1150.09 169.448C1150.09 170.045 1149.88 170.557 1149.45 170.984C1149.07 171.368 1148.53 171.56 1147.85 171.56H1131.15ZM1181.46 216.232C1181.12 216.232 1180.74 216.147 1180.31 215.976C1178.86 215.336 1178.46 214.312 1179.1 212.904L1199.77 167.336C1200.41 165.971 1201.43 165.587 1202.84 166.184C1204.29 166.781 1204.7 167.784 1204.06 169.192L1183.32 214.76C1182.89 215.741 1182.27 216.232 1181.46 216.232ZM1188.57 199.912C1187.93 200.211 1187.33 200.275 1186.78 200.104C1186.22 199.891 1185.77 199.464 1185.43 198.824L1171.16 169.256C1170.86 168.616 1170.82 168.019 1171.03 167.464C1171.24 166.909 1171.67 166.483 1172.31 166.184C1172.95 165.885 1173.55 165.843 1174.1 166.056C1174.66 166.227 1175.08 166.632 1175.38 167.272L1189.4 196.84C1189.74 197.48 1189.85 198.077 1189.72 198.632C1189.59 199.187 1189.21 199.613 1188.57 199.912ZM1225.2 201.32C1221.78 201.32 1218.73 200.552 1216.04 199.016C1213.36 197.48 1211.24 195.368 1209.71 192.68C1208.17 189.992 1207.4 186.941 1207.4 183.528C1207.4 180.072 1208.17 177 1209.71 174.312C1211.24 171.624 1213.36 169.512 1216.04 167.976C1218.73 166.44 1221.78 165.672 1225.2 165.672C1228.61 165.672 1231.64 166.44 1234.28 167.976C1236.97 169.512 1239.08 171.624 1240.62 174.312C1242.16 177 1242.95 180.072 1242.99 183.528C1242.99 186.941 1242.2 189.992 1240.62 192.68C1239.08 195.368 1236.97 197.48 1234.28 199.016C1231.64 200.552 1228.61 201.32 1225.2 201.32ZM1225.2 196.84C1227.67 196.84 1229.89 196.264 1231.85 195.112C1233.81 193.96 1235.35 192.381 1236.46 190.376C1237.57 188.371 1238.12 186.088 1238.12 183.528C1238.12 180.968 1237.57 178.685 1236.46 176.68C1235.35 174.632 1233.81 173.032 1231.85 171.88C1229.89 170.728 1227.67 170.152 1225.2 170.152C1222.72 170.152 1220.5 170.728 1218.54 171.88C1216.58 173.032 1215.02 174.632 1213.87 176.68C1212.76 178.685 1212.2 180.968 1212.2 183.528C1212.2 186.088 1212.76 188.371 1213.87 190.376C1215.02 192.381 1216.58 193.96 1218.54 195.112C1220.5 196.264 1222.72 196.84 1225.2 196.84ZM1267.8 201.384C1264.78 201.384 1262.07 200.765 1259.68 199.528C1257.29 198.248 1255.39 196.392 1253.98 193.96C1252.62 191.528 1251.93 188.563 1251.93 185.064V168.424C1251.93 167.741 1252.17 167.165 1252.64 166.696C1253.11 166.227 1253.68 165.992 1254.36 165.992C1255.09 165.992 1255.69 166.227 1256.16 166.696C1256.63 167.165 1256.86 167.741 1256.86 168.424V185.064C1256.86 187.709 1257.35 189.885 1258.33 191.592C1259.36 193.299 1260.72 194.579 1262.43 195.432C1264.18 196.285 1266.14 196.712 1268.32 196.712C1270.41 196.712 1272.28 196.307 1273.95 195.496C1275.66 194.685 1277 193.576 1277.98 192.168C1278.96 190.76 1279.45 189.16 1279.45 187.368H1282.97C1282.84 190.056 1282.1 192.467 1280.73 194.6C1279.41 196.691 1277.62 198.355 1275.36 199.592C1273.1 200.787 1270.58 201.384 1267.8 201.384ZM1281.88 201C1281.16 201 1280.56 200.787 1280.09 200.36C1279.67 199.891 1279.45 199.272 1279.45 198.504V168.424C1279.45 167.699 1279.67 167.123 1280.09 166.696C1280.56 166.227 1281.16 165.992 1281.88 165.992C1282.61 165.992 1283.21 166.227 1283.68 166.696C1284.15 167.123 1284.38 167.699 1284.38 168.424V198.504C1284.38 199.272 1284.15 199.891 1283.68 200.36C1283.21 200.787 1282.61 201 1281.88 201ZM1297.93 179.432C1298.06 176.787 1298.74 174.419 1299.98 172.328C1301.26 170.237 1302.9 168.595 1304.91 167.4C1306.96 166.205 1309.22 165.608 1311.69 165.608C1313.66 165.608 1315.17 165.885 1316.24 166.44C1317.3 166.995 1317.71 167.805 1317.45 168.872C1317.28 169.512 1316.98 169.939 1316.56 170.152C1316.17 170.365 1315.68 170.451 1315.09 170.408C1314.53 170.365 1313.89 170.323 1313.17 170.28C1310.78 170.067 1308.64 170.323 1306.77 171.048C1304.93 171.731 1303.46 172.797 1302.35 174.248C1301.28 175.699 1300.75 177.427 1300.75 179.432H1297.93ZM1298.32 201C1297.55 201 1296.95 200.787 1296.53 200.36C1296.1 199.933 1295.89 199.336 1295.89 198.568V168.424C1295.89 167.656 1296.1 167.059 1296.53 166.632C1296.95 166.205 1297.55 165.992 1298.32 165.992C1299.09 165.992 1299.68 166.205 1300.11 166.632C1300.54 167.059 1300.75 167.656 1300.75 168.424V198.568C1300.75 199.336 1300.54 199.933 1300.11 200.36C1299.68 200.787 1299.09 201 1298.32 201ZM1346.44 186.728C1345.68 186.728 1345.06 186.493 1344.59 186.024C1344.16 185.555 1343.95 184.957 1343.95 184.232V153.512C1343.95 152.744 1344.16 152.147 1344.59 151.72C1345.06 151.251 1345.68 151.016 1346.44 151.016C1347.17 151.016 1347.74 151.251 1348.17 151.72C1348.64 152.147 1348.88 152.744 1348.88 153.512V184.232C1348.88 184.957 1348.64 185.555 1348.17 186.024C1347.74 186.493 1347.17 186.728 1346.44 186.728ZM1373.96 201C1373.24 201 1372.64 200.765 1372.17 200.296C1371.7 199.827 1371.47 199.251 1371.47 198.568V181.928C1371.47 179.283 1370.96 177.107 1369.93 175.4C1368.95 173.693 1367.58 172.413 1365.84 171.56C1364.13 170.707 1362.19 170.28 1360.01 170.28C1357.92 170.28 1356.02 170.685 1354.32 171.496C1352.65 172.307 1351.33 173.416 1350.35 174.824C1349.37 176.232 1348.88 177.832 1348.88 179.624H1345.36C1345.44 176.936 1346.17 174.547 1347.53 172.456C1348.9 170.323 1350.71 168.659 1352.97 167.464C1355.23 166.227 1357.75 165.608 1360.52 165.608C1363.55 165.608 1366.26 166.248 1368.65 167.528C1371.04 168.765 1372.92 170.6 1374.28 173.032C1375.69 175.464 1376.4 178.429 1376.4 181.928V198.568C1376.4 199.251 1376.16 199.827 1375.69 200.296C1375.22 200.765 1374.65 201 1373.96 201ZM1346.44 201C1345.68 201 1345.06 200.787 1344.59 200.36C1344.16 199.891 1343.95 199.293 1343.95 198.568V168.488C1343.95 167.72 1344.16 167.123 1344.59 166.696C1345.06 166.227 1345.68 165.992 1346.44 165.992C1347.17 165.992 1347.74 166.227 1348.17 166.696C1348.64 167.123 1348.88 167.72 1348.88 168.488V198.568C1348.88 199.293 1348.64 199.891 1348.17 200.36C1347.74 200.787 1347.17 201 1346.44 201ZM1403.2 201.32C1399.78 201.32 1396.73 200.552 1394.04 199.016C1391.36 197.48 1389.24 195.368 1387.71 192.68C1386.17 189.992 1385.4 186.941 1385.4 183.528C1385.4 180.072 1386.17 177 1387.71 174.312C1389.24 171.624 1391.36 169.512 1394.04 167.976C1396.73 166.44 1399.78 165.672 1403.2 165.672C1406.61 165.672 1409.64 166.44 1412.28 167.976C1414.97 169.512 1417.08 171.624 1418.62 174.312C1420.16 177 1420.95 180.072 1420.99 183.528C1420.99 186.941 1420.2 189.992 1418.62 192.68C1417.08 195.368 1414.97 197.48 1412.28 199.016C1409.64 200.552 1406.61 201.32 1403.2 201.32ZM1403.2 196.84C1405.67 196.84 1407.89 196.264 1409.85 195.112C1411.81 193.96 1413.35 192.381 1414.46 190.376C1415.57 188.371 1416.12 186.088 1416.12 183.528C1416.12 180.968 1415.57 178.685 1414.46 176.68C1413.35 174.632 1411.81 173.032 1409.85 171.88C1407.89 170.728 1405.67 170.152 1403.2 170.152C1400.72 170.152 1398.5 170.728 1396.54 171.88C1394.58 173.032 1393.02 174.632 1391.87 176.68C1390.76 178.685 1390.2 180.968 1390.2 183.528C1390.2 186.088 1390.76 188.371 1391.87 190.376C1393.02 192.381 1394.58 193.96 1396.54 195.112C1398.5 196.264 1400.72 196.84 1403.2 196.84ZM1438.12 201C1436.42 201 1434.88 200.531 1433.52 199.592C1432.19 198.653 1431.15 197.352 1430.38 195.688C1429.66 194.024 1429.29 192.104 1429.29 189.928V153.448C1429.29 152.723 1429.51 152.147 1429.93 151.72C1430.4 151.251 1431 151.016 1431.72 151.016C1432.45 151.016 1433.03 151.251 1433.45 151.72C1433.92 152.147 1434.16 152.723 1434.16 153.448V189.928C1434.16 191.763 1434.52 193.256 1435.24 194.408C1436.01 195.56 1436.97 196.136 1438.12 196.136H1439.72C1440.36 196.136 1440.88 196.371 1441.26 196.84C1441.64 197.267 1441.84 197.843 1441.84 198.568C1441.84 199.293 1441.56 199.891 1441 200.36C1440.49 200.787 1439.81 201 1438.96 201H1438.12ZM1452.16 201C1451.39 201 1450.77 200.787 1450.3 200.36C1449.87 199.891 1449.66 199.272 1449.66 198.504V168.488C1449.66 167.72 1449.87 167.123 1450.3 166.696C1450.77 166.227 1451.39 165.992 1452.16 165.992C1452.88 165.992 1453.46 166.227 1453.88 166.696C1454.35 167.123 1454.59 167.72 1454.59 168.488V198.504C1454.59 199.272 1454.35 199.891 1453.88 200.36C1453.46 200.787 1452.88 201 1452.16 201ZM1452.09 159.336C1451.15 159.336 1450.34 158.995 1449.66 158.312C1448.98 157.629 1448.64 156.797 1448.64 155.816C1448.64 154.749 1448.98 153.917 1449.66 153.32C1450.38 152.68 1451.22 152.36 1452.16 152.36C1453.05 152.36 1453.84 152.68 1454.52 153.32C1455.25 153.917 1455.61 154.749 1455.61 155.816C1455.61 156.797 1455.27 157.629 1454.59 158.312C1453.9 158.995 1453.07 159.336 1452.09 159.336ZM1483.07 201.32C1479.7 201.32 1476.67 200.552 1473.98 199.016C1471.3 197.437 1469.16 195.304 1467.58 192.616C1466.05 189.928 1465.28 186.877 1465.28 183.464C1465.28 180.093 1466.03 177.064 1467.52 174.376C1469.05 171.688 1471.12 169.576 1473.73 168.04C1476.33 166.461 1479.27 165.672 1482.56 165.672C1485.42 165.672 1488 166.291 1490.3 167.528C1492.61 168.723 1494.46 170.323 1495.87 172.328V153.512C1495.87 152.744 1496.11 152.147 1496.58 151.72C1497.04 151.251 1497.64 151.016 1498.37 151.016C1499.09 151.016 1499.69 151.251 1500.16 151.72C1500.63 152.147 1500.86 152.744 1500.86 153.512V183.72C1500.78 187.048 1499.95 190.056 1498.37 192.744C1496.83 195.389 1494.72 197.48 1492.03 199.016C1489.39 200.552 1486.4 201.32 1483.07 201.32ZM1483.07 196.84C1485.55 196.84 1487.74 196.264 1489.66 195.112C1491.63 193.917 1493.16 192.317 1494.27 190.312C1495.42 188.307 1496 186.024 1496 183.464C1496 180.947 1495.42 178.685 1494.27 176.68C1493.16 174.632 1491.63 173.032 1489.66 171.88C1487.74 170.728 1485.55 170.152 1483.07 170.152C1480.64 170.152 1478.44 170.728 1476.48 171.88C1474.52 173.032 1472.96 174.632 1471.81 176.68C1470.66 178.685 1470.08 180.947 1470.08 183.464C1470.08 186.024 1470.66 188.307 1471.81 190.312C1472.96 192.317 1474.52 193.917 1476.48 195.112C1478.44 196.264 1480.64 196.84 1483.07 196.84ZM1527.81 201.32C1524.52 201.32 1521.58 200.552 1518.98 199.016C1516.37 197.437 1514.3 195.304 1512.77 192.616C1511.28 189.928 1510.53 186.899 1510.53 183.528C1510.53 180.115 1511.3 177.064 1512.83 174.376C1514.41 171.688 1516.55 169.576 1519.23 168.04C1521.92 166.461 1524.95 165.672 1528.32 165.672C1531.69 165.672 1534.7 166.461 1537.35 168.04C1540.03 169.576 1542.15 171.688 1543.68 174.376C1545.26 177.064 1546.07 180.115 1546.11 183.528L1544.13 185.064C1544.13 188.136 1543.4 190.909 1541.95 193.384C1540.55 195.816 1538.6 197.757 1536.13 199.208C1533.7 200.616 1530.92 201.32 1527.81 201.32ZM1528.32 196.84C1530.8 196.84 1532.99 196.264 1534.91 195.112C1536.88 193.96 1538.41 192.381 1539.52 190.376C1540.67 188.328 1541.25 186.045 1541.25 183.528C1541.25 180.968 1540.67 178.685 1539.52 176.68C1538.41 174.675 1536.88 173.096 1534.91 171.944C1532.99 170.749 1530.8 170.152 1528.32 170.152C1525.89 170.152 1523.69 170.749 1521.73 171.944C1519.77 173.096 1518.21 174.675 1517.06 176.68C1515.91 178.685 1515.33 180.968 1515.33 183.528C1515.33 186.045 1515.91 188.328 1517.06 190.376C1518.21 192.381 1519.77 193.96 1521.73 195.112C1523.69 196.264 1525.89 196.84 1528.32 196.84ZM1543.62 201C1542.89 201 1542.29 200.787 1541.83 200.36C1541.36 199.891 1541.12 199.293 1541.12 198.568V187.624L1542.34 182.568L1546.11 183.528V198.568C1546.11 199.293 1545.88 199.891 1545.41 200.36C1544.94 200.787 1544.34 201 1543.62 201ZM1561.71 216.232C1561.37 216.232 1560.99 216.147 1560.56 215.976C1559.11 215.336 1558.71 214.312 1559.35 212.904L1580.02 167.336C1580.66 165.971 1581.68 165.587 1583.09 166.184C1584.54 166.781 1584.95 167.784 1584.31 169.192L1563.57 214.76C1563.14 215.741 1562.52 216.232 1561.71 216.232ZM1568.82 199.912C1568.18 200.211 1567.58 200.275 1567.03 200.104C1566.47 199.891 1566.02 199.464 1565.68 198.824L1551.41 169.256C1551.11 168.616 1551.07 168.019 1551.28 167.464C1551.49 166.909 1551.92 166.483 1552.56 166.184C1553.2 165.885 1553.8 165.843 1554.35 166.056C1554.91 166.227 1555.33 166.632 1555.63 167.272L1569.65 196.84C1569.99 197.48 1570.1 198.077 1569.97 198.632C1569.84 199.187 1569.46 199.613 1568.82 199.912ZM1591.91 189.672C1591.23 189.672 1590.63 189.437 1590.12 188.968C1589.65 188.456 1589.42 187.859 1589.42 187.176V153.512C1589.42 152.787 1589.65 152.189 1590.12 151.72C1590.63 151.208 1591.23 150.952 1591.91 150.952C1592.64 150.952 1593.23 151.208 1593.7 151.72C1594.17 152.189 1594.41 152.787 1594.41 153.512V187.176C1594.41 187.859 1594.15 188.456 1593.64 188.968C1593.13 189.437 1592.55 189.672 1591.91 189.672ZM1591.91 201C1590.89 201 1590.01 200.637 1589.29 199.912C1588.56 199.187 1588.2 198.312 1588.2 197.288C1588.2 196.221 1588.56 195.325 1589.29 194.6C1590.01 193.875 1590.89 193.512 1591.91 193.512C1592.94 193.512 1593.81 193.896 1594.54 194.664C1595.26 195.389 1595.62 196.264 1595.62 197.288C1595.62 198.312 1595.26 199.187 1594.54 199.912C1593.81 200.637 1592.94 201 1591.91 201Z" fill="#094074"/>
</g>
<path d="M145 201.5C55.5 177 0 197.5 0 197.5L0.5 558L1660.5 559.5C1660.5 559.5 1567.5 503.5 1522.5 496C1477.5 488.5 1494 500.5 1449.5 505C1405 509.5 1294.5 489 1220 474.5C1145.5 460 1146.5 411 1088 420C1029.5 429 960 422 907.5 412.5C855 403 821.5 330 784 345.5C746.5 361 686.5 391 602.5 372.5C518.5 354 551.5 334 470 306C388.5 278 314.5 319 260 297C205.5 275 234.5 226 145 201.5Z" fill="url(#paint0_radial_427_573)"/>
<circle cx="942" cy="305.5" r="5.5" fill="#FE9000" fill-opacity="0.31"/>
<circle cx="966" cy="329.5" r="5.5" fill="#FE9000" fill-opacity="0.31"/>
<circle cx="1562" cy="425.5" r="5.5" fill="#FE9000" fill-opacity="0.31"/>
<circle cx="1537" cy="419.5" r="5.5" fill="#FE9000" fill-opacity="0.31"/>
<circle cx="182.5" cy="281" r="6" fill="white" fill-opacity="0.7"/>
<circle cx="168.5" cy="269" r="3" fill="white" fill-opacity="0.7"/>
<circle cx="164" cy="283.5" r="4.5" fill="white" fill-opacity="0.8"/>
<circle cx="780" cy="388.5" r="4.5" fill="white" fill-opacity="0.8"/>
<circle cx="794.5" cy="396" r="3" fill="white" fill-opacity="0.7"/>
<circle cx="1372.5" cy="513" r="3" fill="white" fill-opacity="0.7"/>
<circle cx="1379.5" cy="525" r="4" fill="white" fill-opacity="0.7"/>
<defs>
<radialGradient id="paint0_radial_427_573" cx="0" cy="0" r="1" gradientUnits="userSpaceOnUse" gradientTransform="translate(72.5 586.5) rotate(-1.42112) scale(1108.84 4975.86)">
<stop stop-color="#120974"/>
<stop offset="1" stop-color="#5ADBFF"/>
</radialGradient>
<clipPath id="clip0_427_573">
<rect width="2060" height="558" fill="white" transform="translate(0.5)"/>
</clipPath>
</defs>
</svg>
